<svg xmlns="http://www.w3.org/2000/svg" xmlns:xlink="http://www.w3.org/1999/xlink" viewBox="0 0 1400.1 1000">
  <defs>
    <style>
      .cls-1 {
        fill: url(#Dégradé_sans_nom_15);
      }

      .cls-2 {
        opacity: 0.8;
        fill: url(#Dégradé_sans_nom_2);
      }

      .cls-14, .cls-2, .cls-5 {
        isolation: isolate;
      }

      .cls-3 {
        fill: url(#Dégradé_sans_nom_3);
      }

      .cls-12, .cls-24, .cls-4, .cls-5 {
        fill: #fff;
      }

      .cls-5 {
        opacity: 0.52;
      }

      .cls-6 {
        fill: url(#Dégradé_sans_nom_6);
      }

      .cls-7 {
        fill: url(#Dégradé_sans_nom_6-2);
      }

      .cls-8 {
        fill: url(#Dégradé_sans_nom_6-3);
      }

      .cls-9 {
        fill: #0b0b1a;
      }

      .cls-10 {
        fill: #182b36;
      }

      .cls-11 {
        fill: #436b8a;
        opacity: 0.9;
      }

      .cls-12, .cls-16 {
        opacity: 0.1;
      }

      .cls-13 {
        fill: none;
      }

      .cls-14 {
        fill: #2b789e;
        opacity: 0.2;
      }

      .cls-15, .cls-23 {
        fill: #273332;
      }

      .cls-17 {
        fill: #334240;
      }

      .cls-18 {
        fill: #3d3d3d;
      }

      .cls-19 {
        fill: #474747;
      }

      .cls-20 {
        fill: #33535e;
      }

      .cls-21 {
        fill: #8fd9e0;
      }

      .cls-22 {
        fill: #f0f0e4;
      }

      .cls-23, .cls-24 {
        opacity: 0.8;
      }

      .cls-25 {
        fill: #20403e;
      }

      .cls-26 {
        fill: #1a3331;
      }

      .cls-27 {
        fill: #122423;
      }

      .cls-28 {
        fill: #0d1c1b;
      }
    </style>
    <linearGradient id="Dégradé_sans_nom_15" data-name="Dégradé sans nom 15" x1="700.05" y1="-164.74" x2="700.05" y2="302.26" gradientTransform="matrix(1, 0, 0, -1, 0, 302.26)" gradientUnits="userSpaceOnUse">
      <stop offset="0" stop-color="#fff"/>
      <stop offset="0.07" stop-color="#ccced6"/>
      <stop offset="0.13" stop-color="#a0a4b2"/>
      <stop offset="0.2" stop-color="#7a7f94"/>
      <stop offset="0.28" stop-color="#5a617b"/>
      <stop offset="0.35" stop-color="#424a67"/>
      <stop offset="0.43" stop-color="#313a5a"/>
      <stop offset="0.52" stop-color="#273052"/>
      <stop offset="0.63" stop-color="#242d4f"/>
      <stop offset="1" stop-color="#0e0d1c"/>
    </linearGradient>
    <radialGradient id="Dégradé_sans_nom_2" data-name="Dégradé sans nom 2" cx="541.13" cy="1033.86" r="174.53" gradientTransform="translate(0 -698)" gradientUnits="userSpaceOnUse">
      <stop offset="0.25" stop-color="#fff"/>
      <stop offset="0.64" stop-color="#fff" stop-opacity="0.72"/>
      <stop offset="0.73" stop-color="#fff" stop-opacity="0.5"/>
      <stop offset="0.82" stop-color="#fff" stop-opacity="0.29"/>
      <stop offset="0.9" stop-color="#fff" stop-opacity="0.13"/>
      <stop offset="0.96" stop-color="#fff" stop-opacity="0.03"/>
      <stop offset="1" stop-color="#fff" stop-opacity="0"/>
    </radialGradient>
    <radialGradient id="Dégradé_sans_nom_3" data-name="Dégradé sans nom 3" cx="539.7" cy="1030.73" r="144.6" gradientTransform="translate(0 -698)" gradientUnits="userSpaceOnUse">
      <stop offset="0" stop-color="#ababab"/>
      <stop offset="0.84" stop-color="#d4d4d4"/>
      <stop offset="1" stop-color="#f4f4f4"/>
    </radialGradient>
    <radialGradient id="Dégradé_sans_nom_6" data-name="Dégradé sans nom 6" cx="516.55" cy="1044.89" r="128.25" gradientTransform="translate(0 -698)" gradientUnits="userSpaceOnUse">
      <stop offset="0" stop-color="#fff"/>
      <stop offset="0.16" stop-color="#fff" stop-opacity="0.79"/>
      <stop offset="0.39" stop-color="#fff" stop-opacity="0.51"/>
      <stop offset="0.6" stop-color="#fff" stop-opacity="0.29"/>
      <stop offset="0.78" stop-color="#fff" stop-opacity="0.13"/>
      <stop offset="0.92" stop-color="#fff" stop-opacity="0.04"/>
      <stop offset="1" stop-color="#fff" stop-opacity="0"/>
    </radialGradient>
    <radialGradient id="Dégradé_sans_nom_6-2" cx="540.84" cy="1044.8" r="139.34" xlink:href="#Dégradé_sans_nom_6"/>
    <radialGradient id="Dégradé_sans_nom_6-3" cx="534.66" cy="1047.33" r="114.73" xlink:href="#Dégradé_sans_nom_6"/>
  </defs>
  <title>scene_night</title>
  <g id="Calque_21" data-name="Calque 21">
    <rect id="Sky-2" class="cls-1" width="1400.1" height="467"/>
    <g id="Calque_29" data-name="Calque 29">
      <g id="Moon">
        <circle id="Moon_Ray" data-name="Moon Ray" class="cls-2" cx="539.7" cy="337.23" r="174.8"/>
        <g id="Moon-2" data-name="Moon">
          <circle id="Background" class="cls-3" cx="539.7" cy="332.73" r="144.6"/>
          <g id="White_Shapes" data-name="White Shapes">
            <path class="cls-4" d="M680.8,349c-.9,2-.6,5-1.1,7.1-1,4.2-1.1,12.5-7.1,11.9-.8,3.4.5,7.5-.8,10.7-.9,2.1-3.5,3-4.3,4.9-.6,1.4-.1,3.2-.2,4.7-.3,3.5-2,5.8-5.8,6.6-2.8.6-6.3-1-4-3.8-3,2.5-3.7-.4-3.5-3.1-2.5,2-4.5,1.2-5.3-1.2-1.1-3.5,1.5-5.8,2.6-8.7-1.6,1.8-3.1,3.7-5.7,2.8a38.12,38.12,0,0,0-2.4-10.5c-1.6-4.5-1.5-2.6-5.8-3.3,0-2.4.3-6.9-1.8-8.3,1-4.1,1-7.9-1.2-6.2-2.7,2-1.8.6-1.7-4.7,0-1.5-.2-2.9-.1-4.2,0-2.4.6-4.7.1-7.1-.6-2.6-2-3.1-2.9-4.4-1.4-2-1.5-3.8-2.5-6.7-.6-1.9-1.1-1.2-1.6-1.5a4,4,0,0,1-1.5-1.9,40.92,40.92,0,0,0-.1-14.8c.7-.1,1.3-.2,1.9-.3,3.3-.6,9,.1,11.7-1.9,2.3-1.8.6-3.3,3.9-2.5,2.3.6,3.2,2.9,3.9,4.4,1,2-.9,2.6,2.3,2.9,2.7.2,3.2-1.3,2.7-3.8,1.9,1.3,5.1,3,6.1,5.3.8,1.7.2,4.1.8,5.9,1.6,5.1,5.4,4.2,8,.2.2,2.6.6,5.5-1,7.6s-4.4,2.5-5.7,4.9c-1.9,3.5-2.8,7.8-.5,11.4.8-2.7,3.2-.9,4.9-1.8a6.3,6.3,0,0,0,3.1-5.4c0-1.4-2.4-3.7-.8-5.5s4.7-.1,5.8,1.3c2.7-1.9.7-5.2.8-7.9,1.9-.1,5,.6,6.9,0,3.9-1.3,2.9-5.3,2.7-8.9a78,78,0,0,0-2.2-15.9,35,35,0,0,1-.7-4.5,144.7,144.7,0,0,0-71.1-87.5c-.5,2.1-2.4,4.1-2,6.7a10.84,10.84,0,0,1,3.2,3.2c.5,1.1.5,3.1,1.1,4,1.9,2.8,7.9,4.1,8.6,7.9.3,1.8-.9,2.3,0,4.3,1.2,2.6,3.6,3,1,4.7-.6.4-2-.2-2.7,0-1.3.4-2.1,1.6-2.6,1.8-1.6.7-4.2.3-4.4,3.2a9.7,9.7,0,0,1-1.7.1c.3,1.5.6,7.7,2,8.2-.5,3.8,8.8,2.6,11.8,4,.3,2.8-2.2,3.6-3.2,5.2,4.3.3,19.9-1.1,13.3,7.6-1.5,1.9-1.9,1.5-4.4,1.7a45.35,45.35,0,0,0-6.4,1.3c-4,.8-8.3-.7-12.8-.9-.4-1.6-5-9.3-5.1-4.3-.7-.2-1.6.1-2.4-.3,0,.7-.6,1.5-.5,2.2-1-.2-3.5-1-4.6-.5s-.1,1.9-1.2,2.5c-2.1,1.2-6.3.3-6.6,3.9,3.6.5,5.6-2.6,8.2-1.7.1,0-.2,1.8-.1,1.8a7.58,7.58,0,0,0,3,0c1.1.7,1.6.5,1.4,2.4,2.9.5,5.4-2,8.3-1.4,2.6.6,1.7,1.6,3.4,3.2,0-.2.1-.4.1-.6,2.8-.6,2.9,2.3,4.5,3.4a4.72,4.72,0,0,0,4,.8c.9-.2,1.6-1.9,2.5-1.8,6.2.9-2.5,7.2-2.8,8.9,3.8.7,4-3.5,6.7-2.4,1.5.6,4.3,6.7,5.8,1.1a8.82,8.82,0,0,1,3.5,5.5c.1,2.2.6,1.3-1.7,2.8-2.5,1.6-10.4,2.3-12,4.7-.4-4.7-.5-10.2-4-13.4,0,1.5.7,4.1-.4,3.6s-2-3.5-2.8-4.8c-1.2-2.4-5-7.6-5.3-5.4-.5,4.7,5.7,9.1,7.7,13.5,1.3,3,1,7.6.9,10,0,1,0,2,.1,3a7.74,7.74,0,0,0-1.6.7c-3.3,1.9-2.7,3.6-2.6,7.4,3.1.1,2.3-2.8,4-4.2a2.09,2.09,0,0,1,.6-.4c.2,1.2.4,2.5.7,3.7,1,5,2.2,12.1-.8,16.5-.6.9-2.4,3.2-3.2,1.7s-.5-5.1-.9-7.3c-.3-1.6-.6-3-1.5-3.3-.5-.2-.8,1-1.3.9s-.7-.6-1.2-1.2c-.8-.8-1-1.7-1.7-1-.9.8-.7,6.1-1.8,4.7-1.8-2.5-1.3-6.8-2.3-9.9-.3-1.1-1.6-3.1-2.3-3.4-.9-.4-.6,1.1-1.5,1.3-1.3.3-3.5-2.8-4.9-3.6-2.5-1.5-3.4.2-5.4.8-.7.2-1.3-.1-1.6.6s.2,1.8-.1,2.5-1.1.6-1.5,1.7a13.5,13.5,0,0,0-.6,3.5c0,1.4.1,1.3.8,2.4a9.08,9.08,0,0,1,1.9,4.1c1,3.9,2.2,4,3.9,6.3.6.8,2.2,2.9,1.9,3.9-.9-1.4-2.5-2-2.5,1,0,.8.7,1.7.8,2.5a5.76,5.76,0,0,1-.5,2.9c-1.2-.6-1.5-2.2-2.5-.2a21.07,21.07,0,0,0-.9,3.6c-.3,1.7-.1,1.9-.9,3.5s-1.7,3.3-2.5,4.9c-.3-.5-.5-1-.8-1.5-2.9,3.2-1,8.2-2,11.8-.5,2.1-3.1,4.2-4.1,4.1-.7-.1-.8-.7-1.6-.2s-1.5,1.8-2.4,2.2c-1.7.9-2.8-.7-2-2.8a14.55,14.55,0,0,1,4.2-5.9c.5-.5,2.1-1.8,2.2-2.8.1-.8-.8-1.3-1-1.8-.3-1.5,1.1-3.4.2-4.9-1.6,1.1-1.9.3-2.4-.7a4.06,4.06,0,0,1-1.9.4,30.54,30.54,0,0,1,1.3,3.2c-2,2.6-2.5-.6-4.2,1.6.2.3.1.9.3,1.1-1.5,2-1.8.6-3.2.6-.8,0-.8.3-1.5.8-1,.6-.7.6-1.8.4-1.9-.3-3.8,1.4-5.7,1.5s-5,.2-5.9,2.3a3.4,3.4,0,0,1,.1,1c-.1.4-.7.6-.7,1-.2,1.4.6.7,1.4.5a21.72,21.72,0,0,1,2.4-.7c.8-.1,1.4.7,2.2.9,1,.3,2.9.6,1.6,2.2-.5.6-1.4.5-1.8,1.3a2.34,2.34,0,0,0,.5,2.1c-.6,1.2-1.3,1.5-.7,2.8.3.7,1.1,1,.9,2-1.6,1-3.1,1.6-4.5,1.1-.6,2.3-8,.5-9.2,1.4-1.3,1.1.3,2.7.2,4,0,.3.3.7.2.9-.3.6-1.5.8-1.7,1.3-.2.7.5.7.7,1.3.4,1.2-.6,2.6-.4,3.8.3,1.5,4.6.7,1,3.4a18.26,18.26,0,0,0-4.5,4.7c-1.4,2,0,2.2-.3,3.9a6.07,6.07,0,0,1-.7,1.4,1.44,1.44,0,0,0-.7-1.1c-.6-.4-1.1.1-1.7-.3s-.7-1.2-1.6-1.6a7.83,7.83,0,0,0-2.5-.7c-1,0-.9.1-1.3,1a4.52,4.52,0,0,1-2,2.3c-2.1,1.4-1.7,2.8-2.3,4.9-.2.8-.7,2.9-1.4,2.7.4-1.2.1-3-1.8-2.4-.5.2-.7,1.1-1.1,1.4a2.09,2.09,0,0,1-1.9.3c-.3-1.4.5-2.2-1.1-2.6a7.07,7.07,0,0,0-2.5.2c-1.1.2-1.1.5-2.4.4s-2.7-.3-4-.4c.1-.5.2-1,.3-1.4-3.3-1.7-4.9,3.1-7.1,4.1a4.41,4.41,0,0,1-4.5-1.2c-.5-.7-.2-1.1-1-1.6s-1.8-.1-2.6-.6a2.32,2.32,0,0,1-1.2-1.6,15,15,0,0,0,2-2.4c1.7-.5,3-.1,4.7.4.6.2,2.3.9,2.9.5s.1-1.5.4-1.9c.4-.7,1.3-.8,2-1.1,1.9,0,3.6-.6,5.2-3.5,1-2,2.2-6.8-.6-8-2.3-1-4.2,3.9-7.5,2.9-1.1-4.5-5-2-8.7.1a6.38,6.38,0,0,1-.6-.9c-1.1-1.9-3.5-2.3-5-3.8s-3.9-4.1-6-3c-.1,0-.4.7-.5.9-.3.3-.9,0-1.2.3-.8.8-.3.9.3,1.2a4.7,4.7,0,0,0-2.1,4.6c-2.1-3-7.5-5.4-7.4-9.8.1-3.3,3.3-3.7,3-6.9-2.9-.5-10.4,3.2-12.8-.3s1-1.8,1.3-3.9a31.25,31.25,0,0,1,.4-4.3c1.3-3.4,2.8-5.6,7.5-7.6,2.9-1.2,9.8-1.4,10.3-5.1-3.9-1.1-7.4,1.9-11.7,1.3,1.4-2.6,4.8-4,6.4-5.7a15.93,15.93,0,0,1-6.4-1.3c1.6-5.3,7.8-7.5,9.2-12.7,1.1-4,.5-9.5.3-13.9-3.3-.1-.9,1.9-2.1,3.8-.4.6-.4,2.3-.8,3.1s-2.2.7-2.5,1.4c-1.2,2.8-.9,5.8-3.3,8.2-2.7,2.7-5.8,1.6-8.6,3.2s-3.6,6.1-7.3,5.3a10.27,10.27,0,0,1-.7-2.5c-2.3.8-1.6,2.7-4.3,3.2-.9.1-2.5-2.5-4.7-2.1a17.59,17.59,0,0,0-.6,8.5c.5,3.1,2.8,5.9,2.6,9-7.9.3-16.2,1.5-16-7.9a8.54,8.54,0,0,0-4.2.1c.7,3.2-1,7.4-3.8,4-1.6-1.9,2-6.5-3.1-5.2.6,2.7-.8,4.4-3.6,4.3-.4,2.8-.1,6-.3,8.9-6.8.3-9.6.7-12.8-4.8-1.1-2,.1-3.2-2.1-4.9-1.3-1-4,.5-5.7-.8a11.91,11.91,0,0,1-2.3-3.1,144.75,144.75,0,0,0,161.7,125.5c3.1-.4,6.2-.9,9.2-1.5a9.47,9.47,0,0,0,3.7-3.2c2.4-3.7,2.3-10.8,2-15.5-6.3.6-4.9-8.7-10.6-7-.6,3.8-1.2,10-6.5,10.1-3,.1-2.9-2-4.9-2.8-3.8-1.6-.9-1.3-4.6-.8-4.4.5-8.1,2.9-12.9,1.9-.2,0-.3-.1-.5-.1,1.3-.6,1.9-1.6,3.5-1.8,2.1-.3,3.8-1.4,1.9-3.3-2.1-2.1-1.2-1.8.8-3,.6-.4,1-.9,1.5-1.2.9-.5,2.1-.4,2.8-1.4s.3-2.6.5-3.7a3.8,3.8,0,0,1,.6-1.8,7.72,7.72,0,0,0,1.5-.2c1.9-.7,1.2-1.4,2.5-2.4,2.2-1.6,5.3-1.4,7.6-2.7a3,3,0,0,0,.7-.5c2.2.1,6,1.2,6.5-1.4-.7-.3-2-.2-2-1.1s1.3-1.2,1.9-1.6c1-.6,3.2-2.3,1.7-3.6-.6-.5-1.1-.6-1.6-.3,1.1-.7,2.4-1.2,3.6-1.9,1.5,1.2,4.1,1.7,5.9,1.9,1.5.2,4-.7,5.1.6s.2,4.1-1.2,4.8c3.6,2.2,16.5-.8,11.1,6-2.8,3.5-11.6,3-6,6.8,2.7,1.8,4.6,1.6,4.8,4.5a18.51,18.51,0,0,1-1.3,6.1c-.9,1.6-4,2-2.5,4,1,1.3,3.3.4,4.4,1.4-1.6,2.2-4.8,1.7-6.5,3.5s-.2,4.6-1,6.7A144.87,144.87,0,0,0,684,344.83C683,346.53,681.6,347.33,680.8,349Zm-92.6,44.4c0,1.4.1,2.8.2,4.2-1.2-.1-2.5-.1-3.7-.1C586.1,395.53,585.8,394.13,588.2,393.43Zm-43.8,39.8h0c.1-.1.1,0,.2,0Zm-5.9-13.7c.3-1.7,3.6-1.9,4.6-2.8a3.47,3.47,0,0,0,1.2-2.3c-.1-.9-.8-.7-1.3-1.6-.7-1.4.5-3.5.6-4.9a6.65,6.65,0,0,0-.3-2.1,4.42,4.42,0,0,0,.6-1.6c2.7-1,1.2.5,1.9,1.5s2.4.2,3.8.1c-.4.9-.7,1.9-1,2.8-.1,1.2.2,1.8-.6,3.3a17.48,17.48,0,0,1-4,4.2c-1.6,1.5-1.5,1.3-3.6,2.2a2.81,2.81,0,0,0-1.8,1.5C538.5,419.83,538.4,419.73,538.5,419.53Zm21.7,11.9a21.41,21.41,0,0,1,1.3-1.9A21.41,21.41,0,0,0,560.2,431.43Zm13.1-12.1a31.91,31.91,0,0,0-4.1,1.6.85.85,0,0,0-.2-.6c3.1-.9,6.2-1.5,9.2-2.7C578.2,419.93,575.3,418.83,573.3,419.33Zm8.3-8.9c0,.6-2.1,1.3-3.9,2.1a5.1,5.1,0,0,0-2.2-1.9c-.5-.3-1.5-.5-1.1-1.5,1.5-.7,5.1-2,6.7-3.9a31.83,31.83,0,0,1,5.4.1C587.2,408.13,583.7,409.73,581.6,410.43Zm10.9-11.5a9.38,9.38,0,0,0,1.2-.9,4.33,4.33,0,0,1,.1-.5c.6-.3.6,1.3.5,3A12.94,12.94,0,0,0,592.5,398.93Zm40.7-17.1c-.9,3.1.5,4.8-2,7.6-4.1,4.7-4.4,4.1-.6,8.8,2,2.5,3.1,7.1-2,6.4-3.8-.5-3-6.8-6.4-2.6-.9,1.2.7,2.4-1.1,3.6-1.3.9-4.3-.3-5.1-1.3-1.8,3-3.7,2-5.4.3.7-.8,1.3-1.6,1.8-2.3s.4-1.5.9-2c.8-.7,1.3,0,1.9-.2,1.4-.5,3.5-2.3,5.1-3.6s3.1-2.1,4.7-3.5c.7-.6,2.8-2.3,3.4-3.6.7-1.6.3-2.5.3-4-.2-4,2.5-6.5,4.9-9.3-.1-1.4-.8-3.1-.7-4.6.1-1.8,0-.3.5-2.3.1-.3.1-.6.2-.8v3c.2,1.6,1.1,2.6,1.4,3.9C635.8,378.73,634.1,378.93,633.2,381.83Z"/>
            <path class="cls-4" d="M514.5,256.53c-.2-.1,0-.5,0-.7s0-1.1-.5-1c-.8.2.1,1.4,0,1.9s-.7.8-1,1a1.85,1.85,0,0,0-.7,1.2,2.71,2.71,0,0,1-1.4,1.9c-.3.1-.9.2-1.1,0s.1-.7.1-1,0-.4-.2-.5-.3.1-.5,0-.2-.1-.3-.3-.1-.3-.4-.3-.6.8-.9.4.2-1.1.2-1.5a.71.71,0,0,0-.3-.6c-.2-.1-.3.1-.6,0s-.7-.7-1-1c-.5-.4-1-.3-1.6-.5-.2-.1-.4-.2-.5-.1s-.1.3-.3.3a1.27,1.27,0,0,0-.6.1c-.2.1-.4.3-.6.4s-.1.2,0,.4a1.08,1.08,0,0,1,.2.8c0,.7.3.8.7,1.3.1.2.5.6.4.8-.2-.3-.6-.5-.8,0a4.33,4.33,0,0,1,.1.5c0,.2-.1.3-.2.5-.4-.2-.4-.5-.8-.2a2.09,2.09,0,0,0-.4.6,1.69,1.69,0,0,1-.3.6l-.8.8-.3-.3c-.9.4-.1,1.6-.3,2.2a1.37,1.37,0,0,1-1,.8c-.2,0-.3-.1-.5,0s-.3.4-.5.5a.44.44,0,0,1-.7-.2.6.6,0,0,1-.1-.4,1.72,1.72,0,0,1,1-1.2c.1-.1.6-.3.6-.5s-.3-.3-.3-.4c-.1-.3.3-.7,0-1-.5.2-.6,0-.7-.2H497a2.51,2.51,0,0,1,.4.7c-.6.5-.8-.2-1.3.3a.37.37,0,0,1,.1.3c-.4.4-.5.1-1,.1-.2,0-.2.1-.4.2a.75.75,0,0,1-.5.1c-.6-.1-1.1.4-1.7.4s-1.5.2-1.7.8c0,.1.1.2.1.3s-.2.2-.1.3c0,.4.2.2.5.1l.6-.3c.2-.1.5.1.7.1s.9,0,.7.5c-.1.2-.4.2-.4.4a.85.85,0,0,0,.3.5c-.1.3-.2.4.1.7s.4.2.5.4a2.28,2.28,0,0,1-1.2.6c.1.6-2.2.9-2.4,1.2s.5.6.7.9c0,.1.2.1.2.2s-.3.4-.2.5.3.1.4.2c.3.2.3.6.6.8s1.2-.4.9.6a2.57,2.57,0,0,0-.1,1.5c.1.5.5.4.8.7s.2.5.3.7.4.4.5.7c.1,0,.8-.4.8-.6a.37.37,0,0,0-.2-.3c.3-.5.4-.1.7,0s.5-.3.8-.4c.1.2.3.4.4.6a3.39,3.39,0,0,1,.6.6,3.54,3.54,0,0,1,.3,1.1.78.78,0,0,1-.1.8c-.1.4.1.3.2.6s-.5.8-.4,1.3c0,.1.1.2.1.4s-.3.6-.2.9.5.2.7.4c-.2.3-1,1.1-.4,1.3a1,1,0,0,0,.9-.4.62.62,0,0,0-.1-.7c.4-.5.6.4,1.1.4s1.1-.7,1.3-1c.4-.5-.1-.8.4-1.2a2.18,2.18,0,0,1,.8-.5,2.66,2.66,0,0,1,1.2.3c.2.2.3.6.6.8a.61.61,0,0,0,.7-.3c.1-.3-.2-.3-.3-.5-.1-.4.5-.6.6-1,.1-.6-.7-1-.7-1.6,0-.3.4-.6.3-.9a1.14,1.14,0,0,0-.8-.7c.5-.4,1.2-.6,1.7-1-.2-.3-.7-.4-1-.6a3.55,3.55,0,0,0-1-.2c-.2,0-.5,0-.5-.2.3-.2,1-.7,1-1.1,0-.1-.1-.2-.2-.3a2.18,2.18,0,0,0-.5-.4c-.1-.3.3-.3.3-.6s-.2-.6.4-.8a7.64,7.64,0,0,0,.9.9c.4.4.9.1,1.3-.3v-.1c.2-.1.8.8,1,.9a1.36,1.36,0,0,0,1.5-.1,2.5,2.5,0,0,0,1.8.8,2.24,2.24,0,0,0,1.5-1.2c0-.1-.1-.2,0-.3s.4,0,.5,0a3.13,3.13,0,0,0,1-.5,3,3,0,0,1,1-.4c.1-.1.6-.3.6-.4a.91.91,0,0,0-.3-.5c-.4-.6.3-.8.8-1.1-.1-.2-.4-.4-.5-.6s0,0,0-.3,0-.7.2-1.1.3-1.1-.4-1-.6,0-.5-.7v-.5c0-.1.3-.5.2-.8s-.5-.5-.7-.7a2.32,2.32,0,0,1-.4-1c-.1-.4-.3-.2-.4-.3s-.3-.2-.4-.3a5.13,5.13,0,0,0,1.5-2.3c.3-.5,1.4-1.2.9-1.8C514.9,256.43,514.7,256.73,514.5,256.53Z"/>
            <path class="cls-4" d="M519.7,217a.14.14,0,0,1,0-.2s0-.4-.2-.4,0,.5,0,.7-.3.3-.4.4-.2.3-.3.4c-.1.3-.2.6-.5.7-.1,0-.3.1-.4,0s0-.3,0-.4,0-.1-.1-.2-.1,0-.2,0a.1.1,0,0,1-.1-.1.1.1,0,0,0-.1-.1c-.1,0-.2.3-.3.2s.1-.4.1-.5,0-.2-.1-.2h-.2c-.1,0-.2-.3-.4-.4s-.4-.1-.6-.2-.1-.1-.2,0,0,.1-.1.1h-.2c-.1,0-.1.1-.2.2s0,.1,0,.2a.37.37,0,0,1,.1.3c0,.3.1.3.3.5s.2.2.1.3c-.1-.1-.2-.2-.3,0s0,.1,0,.2,0,.1-.1.2c-.1-.1-.1-.2-.3-.1s-.1.1-.1.2,0,.1-.1.2l-.3.3-.1-.1c-.3.1,0,.6-.1.8s-.2.3-.4.3h-.2c-.1,0-.1.1-.2.2s-.2,0-.3-.1v-.1a.43.43,0,0,1,.4-.4s.2-.1.2-.2a.1.1,0,0,0-.1-.1.48.48,0,0,0,0-.4c-.2.1-.2,0-.3-.1h-.2c.1.1.1.2.2.3-.2.2-.3-.1-.5.1v.1c-.1.1-.2,0-.4,0s-.1,0-.2.1-.1,0-.2,0a2.07,2.07,0,0,0-.6.2c-.2.1-.6.1-.6.3v.1s-.1.1,0,.1.1.1.2,0a.35.35,0,0,0,.2-.1h.3c.1,0,.3,0,.2.2s-.1.1-.1.1a.35.35,0,0,1,.1.2c0,.1-.1.2,0,.3s.1.1.2.1a.76.76,0,0,1-.4.2c0,.2-.8.3-.9.4s.2.2.3.3.1,0,.1.1-.1.1-.1.2.1,0,.1.1.1.2.2.3.4-.2.3.2a.45.45,0,0,0,0,.5c0,.2.2.1.3.3s.1.2.1.3.1.2.2.3.3-.1.3-.2a.1.1,0,0,0-.1-.1c.1-.2.1,0,.3,0s.2-.1.3-.1.1.1.2.2.2.1.2.2a.6.6,0,0,1,.1.4v.3c0,.1,0,.1.1.2s-.2.3-.2.5v.1a1,1,0,0,0-.1.3c0,.1.2.1.2.2s-.4.4-.1.5.3-.1.3-.2v-.3c.1-.2.2.1.4.1s.4-.3.5-.4,0-.3.2-.4.2-.1.3-.2.3,0,.4.1.1.2.2.3a.37.37,0,0,0,.3-.1c0-.1-.1-.1-.1-.2s.2-.2.2-.4-.3-.4-.3-.6.1-.2.1-.3-.1-.2-.3-.3c.2-.2.4-.2.6-.4a.76.76,0,0,0-.4-.2c-.1-.1-.2-.1-.4-.1s-.2,0-.2-.1.4-.2.4-.4,0-.1-.1-.1-.1-.1-.2-.1.1-.1.1-.2-.1-.2.1-.3l.3.3c.1.1.3,0,.5-.1h0c.1,0,.3.3.4.3a.45.45,0,0,0,.5,0,.91.91,0,0,0,.7.3,1,1,0,0,0,.5-.4v-.1h.2a.76.76,0,0,0,.4-.2c.1-.1.2-.1.4-.2l.2-.1a.31.31,0,0,0-.1-.2c-.2-.2.1-.3.3-.4,0-.1-.1-.1-.2-.2s0,0,0-.1a.6.6,0,0,1,.1-.4c.1-.1.1-.4-.1-.4s-.2,0-.2-.2v-.2c0-.1.1-.2.1-.3s-.2-.2-.3-.3-.1-.2-.2-.4-.1-.1-.1-.1a.1.1,0,0,1-.1-.1,5.55,5.55,0,0,0,.6-.8c.1-.2.5-.4.3-.7C519.9,217,519.8,217,519.7,217Z"/>
            <path class="cls-4" d="M596.8,256.83a.14.14,0,0,1,0-.2s0-.4-.2-.4,0,.5,0,.7-.3.3-.4.4-.2.3-.3.4c-.1.3-.2.6-.5.7-.1,0-.3.1-.4,0s0-.3,0-.4,0-.1-.1-.2-.1,0-.2,0a.1.1,0,0,1-.1-.1s0-.1-.2-.1-.2.3-.3.2.1-.4.1-.5,0-.2-.1-.2h-.2c-.1,0-.2-.3-.4-.4a4.17,4.17,0,0,0-.6-.2c-.1,0-.1-.1-.2,0s0,.1-.1.1h-.2c-.1,0-.1.1-.2.2s0,.1,0,.2a.37.37,0,0,1,.1.3c0,.3.1.3.3.5s.2.2.1.3c-.1-.1-.2-.2-.3,0s0,.1,0,.2,0,.1-.1.2c-.1-.1-.1-.2-.3-.1s-.1.1-.1.2,0,.1-.1.2l-.3.3-.1-.1c-.3.1,0,.6-.1.8s-.2.3-.4.3h-.2c-.1,0-.1.1-.2.2s-.2,0-.3-.1v-.1a.45.45,0,0,1,.3-.4s.2-.1.2-.2a.1.1,0,0,0-.1-.1.48.48,0,0,0,0-.4c-.2.1-.2,0-.3-.1h-.2c.1.1.1.2.2.3-.2.2-.3-.1-.5.1v.1c-.1.1-.2,0-.3,0s-.1,0-.2.1-.1,0-.2,0a2.07,2.07,0,0,0-.6.2c-.2.1-.6.1-.6.3v.1s-.1.1,0,.1.1.1.2,0a.35.35,0,0,0,.2-.1h.3c.1,0,.3,0,.2.2s-.1.1-.2.1.1.1.1.2-.1.2,0,.3a.31.31,0,0,0,.2.1.76.76,0,0,1-.4.2c0,.2-.8.3-.9.4s.2.2.3.3.1,0,.1.1-.1.1-.1.2.1,0,.2.1.1.2.2.3.4-.2.3.2a.45.45,0,0,0,0,.5c0,.2.2.1.3.3s.1.2.1.3.1.2.2.3.3-.1.3-.2a.1.1,0,0,0-.1-.1c.1-.2.1,0,.3,0s.2-.1.3-.1.1.1.2.2.2.1.2.2a.6.6,0,0,1,.1.4v.3c0,.1,0,.1.1.2s-.2.3-.2.5v.1a1,1,0,0,0-.1.3c0,.1.2.1.2.2s-.4.4-.1.5.3-.1.3-.2v-.3c.1-.2.2.1.4.1s.4-.3.5-.4,0-.3.2-.4.2-.1.3-.2.3,0,.4.1.1.2.2.3a.37.37,0,0,0,.3-.1c0-.1-.1-.1-.1-.2s.2-.2.2-.4-.3-.4-.3-.6.2-.2.1-.3l-.3-.3c.2-.2.4-.2.6-.4a.76.76,0,0,0-.4-.2c-.1-.1-.2-.1-.4-.1s-.2,0-.2-.1.4-.2.4-.4,0-.1-.1-.1-.1-.1-.2-.1.1-.1.1-.2-.1-.2.1-.3l.3.3c.2.1.3,0,.5-.1h0c.1,0,.3.3.4.3a.45.45,0,0,0,.5,0,.91.91,0,0,0,.7.3,1,1,0,0,0,.5-.4v-.1h.2a.76.76,0,0,0,.4-.2.37.37,0,0,1,.3-.1.35.35,0,0,0,.2-.1.31.31,0,0,0-.1-.2c-.2-.2.1-.3.3-.4,0-.1-.2-.1-.2-.2v-.1a.6.6,0,0,1,.1-.4c.1-.1.1-.4-.1-.4s-.2,0-.2-.2v-.2c0-.1.1-.2.1-.3s-.2-.2-.3-.3-.1-.2-.2-.4-.1-.1-.1-.1a.1.1,0,0,1-.1-.1,5.55,5.55,0,0,0,.6-.8c.1-.2.5-.4.3-.7C596.9,256.83,596.8,256.93,596.8,256.83Z"/>
            <path class="cls-4" d="M584.9,291.63a2.91,2.91,0,0,0-2.7-.4c-2-1.2,1.5-1,1.4-1.9s-3.1-2.8-4.4-3.5c-1.7-1-2.8-.4-4.2-1h.5c.1,0,.4.1.3-.2s0-.2.2-.2h.2c.1,0,.2.1.3,0s.2-.2.2-.3.2-.1.3-.2.1-.1.1-.2a.1.1,0,0,1,.1-.1,4.05,4.05,0,0,0,.9.5c.2.1.5.5.7.3,0-.2-.1-.2-.1-.3s.2,0,.2,0,.4,0,.3-.2-.5.1-.7.1-.3-.2-.4-.3a.76.76,0,0,0-.5-.2.84.84,0,0,1-.7-.4c0-.1-.1-.3,0-.4s.3,0,.4,0,.2,0,.2-.1v-.2a.1.1,0,0,1,.1-.1c.1,0,.1-.1.1-.2s-.3-.2-.2-.3.4,0,.5,0a.35.35,0,0,0,.2-.1v-.2c0-.1.2-.3.3-.4s.1-.4.1-.6v-.2c0-.1-.1,0-.1-.1V280c0-.1-.1-.1-.2-.2h-.2a.37.37,0,0,1-.3.1c-.3,0-.3.2-.5.3s-.2.2-.3.2c.1-.1.2-.3,0-.3s-.1.1-.2.1-.1,0-.2-.1.2-.2,0-.3-.1-.1-.2-.1-.1,0-.2-.1-.2-.2-.3-.2l.1-.1c-.2-.3-.6,0-.8,0a.32.32,0,0,1-.3-.3v-.2c0-.1-.2-.1-.2-.2a.19.19,0,0,1,0-.3.14.14,0,0,1,.2,0,.55.55,0,0,1,.5.3s.1.2.2.2a.1.1,0,0,0,.1-.1s.3.1.4,0c-.1-.2,0-.2,0-.3v-.2c-.1.1-.2.1-.2.2-.2-.2,0-.3-.1-.5a.1.1,0,0,0-.1.1c-.2-.1-.1-.2-.1-.3s0-.1-.1-.2,0-.1,0-.2-.2-.4-.2-.6a.71.71,0,0,0-.3-.6h-.2v.2c.1.1.1.1.1.2v.3c0,.1,0,.3-.2.3s-.1-.1-.2-.1-.1.1-.2.1-.2-.1-.3,0,0,.1-.1.2a1.38,1.38,0,0,1-.3-.4c-.2.1-.4-.8-.5-.8s-.2.2-.3.3,0,.1-.1.1-.1-.1-.2-.1a.1.1,0,0,1-.1.1q-.15,0-.3.3c-.1.2.2.4-.2.3a.45.45,0,0,0-.5,0c-.2.1-.1.2-.2.3a.31.31,0,0,1-.2.1l-.2.2s.2.3.3.3a.1.1,0,0,0,.1-.1c.2.1,0,.1,0,.3s0,.1.1.2H571c-1.7.1-3.3-1-4.9-1-2.3,0-3.9,1.8-6,2.2-1.3.3-2.8-.4-4.2.2-1,.4-1.9,1.5-1.8,2a62.55,62.55,0,0,0-6.2-1.6c-.9.7-.8,1.8-.9,2.6a2.52,2.52,0,0,0,.6,2c.2.3.7.7.1,1.1-1.1-.1-3.8-.7-5.2,0-.5.3-.6.6-.9.9s-.4.9-.6,1.3c-.7.6-1.3.1-2.3.6-1.5.6-1.8,1.5-3.3,1.1a21,21,0,0,0,1.5-3c.5-1.3-1-1.5-3-1.2-.1.1-.2.2-.2.3-.7-.1,1.5-2.8,1.7-3.5.4-1.6-.9-1.8-3-1.8,1-1.5,1.4-3.9.3-4.4-2-.9-5.2.1-7.3,1.1-.4.2-.7.6-1.1.8-.6.1-.7-.4-1.1-.5a12,12,0,0,0-3.8.3c-1.3.2-2.3.1-3.6.3a9.61,9.61,0,0,0-2.9.8c-.9.6-1,1.2-1.4,2-1.2,2.1-3.4,2.6-5.6,3.4-.3.9-.7,1.8-1.1,2.7-.6.9-.1.2-1,1-1.6,1.6-2.2,2.8-3.9,4.4-2.1,2-3.7,4.4-1.9,4.2,2.1-.2,1.2.3-.6,3-.5.8-.8,1.6-1.3,2.3a17.62,17.62,0,0,0-2.3,3.7c-.5,1.6,0,2.3.1,3.2.1,1.5-.4,2.5-.8,4.3-.3,1.2.2,1,.3,1.3a2.62,2.62,0,0,1,.2,1.5c-3,3.2-4.6,7.5-6.1,11.4-1.2,2.9-3.9,6.5-2.9,9.9.3-.6.8-2.3,1.2-1.6s0,2.5-.1,3.4c-.1,1.6.2,5.6,1,4.5,1.8-2.3-.1-6.6.3-9.6.3-2,1.9-4.3,2.7-5.6a30.6,30.6,0,0,0,2.7-5.8c1.1-2.9,2.8-7.1,5.7-8.5.6-.3,2.3-.9,2.3.1s-1.4,2.8-1.8,4.1c-.3.9-.6,1.8-.3,2.2s.8-.3,1-.1.2.6.3,1c.2.7,0,1.2.5,1.1.7-.2,2.3-3,2.4-1.9.2,1.9-1.5,4-1.9,6a5.3,5.3,0,0,0,.1,2.5c.3.5.6-.4,1.2-.2.8.3.9,2.6,1.4,3.5.9,1.6,1.8,1,3.1,1.3.4.1.7.5,1.1.2s.4-1,.9-1.3.8.1,1.3-.5a12.94,12.94,0,0,0,1.5-1.7c.5-.8.4-.7.3-1.5a6.72,6.72,0,0,1,.3-2.8c.7-2.4.1-2.8-.1-4.6-.1-.6-.3-2.2.3-2.7,0,1,.6,1.9,1.7.3.3-.4.2-1.1.4-1.6a4.07,4.07,0,0,1,1.2-1.4c.5.7.1,1.7,1.3.9a12.09,12.09,0,0,0,1.6-1.6c.7-.8.7-1,1.6-1.5s2-1.2,2.9-1.8a4.1,4.1,0,0,1-.1,1.1c2.6-.7,3.2-4,4.8-5.6,1-1,3-1.2,3.5-.8s.2.6.8.6,1.4-.5,2-.4c1.2.1,1.3,1.3.2,2.1a8.92,8.92,0,0,1-4.1,1.8c-.4.1-1.7.3-2.1.8s0,.9-.1,1.3c-.3.9-1.6,1.5-1.7,2.5,1.2,0,1.1.4,1.1,1.1a2.1,2.1,0,0,1,1.1.4l.3-2.1c1.9-.7,1.1,1.1,2.7.5,0-.2.2-.5.2-.7,1.4-.6,1.2.3,1.9.7.4.3.5.1,1.1.1s.5-.1,1.1.4c.9.8,2.5.5,3.5,1s2.7,1.5,3.9.6a2.19,2.19,0,0,1,.3-.5c.2-.2.5-.1.7-.3.6-.7-.1-.6-.6-.7a8.33,8.33,0,0,1-1.5-.4c-.5-.2-.5-.8-.9-1.1s-1.3-1.2-.1-1.7c.5-.2.9.2,1.4-.1a1.48,1.48,0,0,0,.4-1.3c.7-.5,1.2-.4,1.3-1.3.1-.5-.3-.8.2-1.4a3.31,3.31,0,0,1,2.8.9c1-1.1,4.4,2.3,5.3,2.2s.7-1.5,1.2-2.2c.1-.2.1-.5.2-.5.3-.2,1.1.1,1.3-.1s0-.5.1-.9c.2-.8,1.2-1.2,1.4-1.9.3-.9-2.2-1.8.5-2.1a10.22,10.22,0,0,0,3.9-1c1.3-.6.7-1.1,1.4-2a7.68,7.68,0,0,1,1.8-1c.6-.4,1.1-.9,1.7-1.3a4.57,4.57,0,0,0-2.4-1.2c-.3,0-.7.5-.8.6-1.8-.3-.5-.7-.5-1.4s-1.2-.9-2-1.2a17.41,17.41,0,0,0,1.4-1.2c.5-.6.5-1,1.4-1.5a10.8,10.8,0,0,1,3.5-1,6.15,6.15,0,0,1,2.7,0c1.4.2,1-.3,2.1-.4s3.1,1,4.7,1.1c.5,0,.8-.2,1.2-.2,1,.1,2.3,1,3.4.9,1.3,0,.5-.9,1.5-1.1,1,.6,4,3.1,4.8,1.9C586.9,293.63,585.7,292.23,584.9,291.63Zm-13.5-10.2h0c.2-.1.2-.2.3-.3a2.09,2.09,0,0,1,.4.6c.1-.1.1-.3.2-.4v-.6s.3.4.4.3.1,0,.1-.1.1-.1.1-.2.1.1.2.1.2-.1.3.1l-.3.3c-.1.2,0,.3.1.4s-.3.3-.3.4-.1.4.1.5a.62.62,0,0,0-.2.7,1.21,1.21,0,0,0,.5.5h.1v.2l.1.1a9,9,0,0,1-2-1.4A1.57,1.57,0,0,1,571.4,281.43Z"/>
          </g>
          <g id="Grey_Shapes" data-name="Grey Shapes">
            <path class="cls-5" d="M586.6,227.13a13.39,13.39,0,0,0-4.7-1.4c3.6-.5,3.9-2.8,1.6-5.1s-6.8-2.1-9.7-3.5c.8-3,4.8-.9,4.9-4.2-6.5-3.3-17-4.6-24.4-5.2a11.72,11.72,0,0,1-.9-2.4c5.1-4.3,6.3-12.7.7-16.7a135.58,135.58,0,0,0-14.3-.7,144.15,144.15,0,0,0-99.2,39.5h0c-.6.6-1.2,1.1-1.8,1.7V229a.1.1,0,0,1-.1.1,11.41,11.41,0,0,0-1.1,1.1h0a12.88,12.88,0,0,0-1.6,1.7v.1c-.4.4-.8.9-1.2,1.3h0c-1.9,2-3.8,4.1-5.6,6.3h0a143.93,143.93,0,0,0-33.9,93.1c.8,2.9,2.9,5.4,6,4.3s1.4-2.5,2.6-4.7c2.1-4,3.9.9,7.5.2a5.63,5.63,0,0,0-1.6-5.5,6.9,6.9,0,0,1,3.5.3c4.2,1,8,2.5,12.6,1.8,8.5-1.2-1.9-3.2-4.1-4.5a8.55,8.55,0,0,0,5.7-5.4c1.2-3.7.1-3.4,3.9-5.1,2.7-1.2,4.8-2,3.6-5.7-.8-2.6-3.6-3.4-4.3-6.3,3.3-.2,8,1.1,10.6-1,3.1-2.6,1.7-7-2.7-7.4-.3-2.6-.1-6.3,3.5-5.6v-1c-7-.4,1-6,.4-7.4-.5-1.2-3.2-.3-3.9-.9-1.2-.9-.2-1.4-.8-2.5-1.5-2.5-2.2-4.2-2-7a5,5,0,0,1,1.3-.4c3.6,8,9.7,3.1,15.1,1.7,1-.3.6-1.1,1.8-1.1,2.1.1,4,2.1,6,2.5,3.2.6,4.5-.2,5.7-3.2.6-1.7.5-3.8,1.4-5,1.7-2.1,3.5-.8,5.7-1.4,4.1-1.2,4.8-4,4.6-8.2-4.5-.2-9,0-13.5,0,2-.2,2.3-2,2-3.9-2.1-.1-4.4.3-6.4-.1-3.3-.5-2.8-.1-2.4-2.9.2-1.4,2.4-4.1.9-5.3a14,14,0,0,0,.6-4.1,12.25,12.25,0,0,0,1.9.2c1.8.7,3.6,1.3,5.5.6a5.36,5.36,0,0,0,2-1,2,2,0,0,0,.9-.2c1.7-1,1.5-3.4,3.6-3.7,1-3.1,3.2-2.2,5.5-3.5,1.9-1.2,1.7-3.7,3.4-4.3,0,5.8-.2,8.3,6.5,10,4.7,1.3,5,.4,6.3-3.4,3.4-1.4,1.1-5.2,5.8-5.8-.2-.8-.1-2.4-.3-3.2,4.6.5,9-3.1,14-2a32.79,32.79,0,0,0,1.8-7.5c-4.7-1.2-6.5-1.9-9.1-6a12.39,12.39,0,0,1,4.3-.5c-1.9,4,5.2,4.8,7.7,5.7,4.7,1.7,4.3,1.6,4,5.7,2.1.7,8,.7,9.6,2.3s-.2,3.4,1.4,5.2c2.9,3.4,5.6,0,5.1,5.2-.3,3.3-3.1,5.5-3.5,8.3,5,.7.6,8-.2,10.6-1.1,3.4-1.6,8.4-.7,11.5a15.31,15.31,0,0,0,4.1,6.3c1,1,2,1.3,2.6,2.2.2.3,0,2.1.4,2.8s1.9,1.1,2.5,1.8c.7.9.6,2,1.3,2.9,3.9,4.7,13.5,7.7,19.2,8.9-3.3-1.4-7.6-6.5-10.7-9-2.6-2.1-3.4-3.1-1.1-7.2,3.8-6.9,12.7-2.8,16.8-8,5.8-7.2-9.4-12.7-4.1-18.8,1.7-1.9,3.6-.5,5.3-.7,3.3-.3,6.7-2.3,6.7-6.2l-.6-.2c2.5-3.2,10.4,2,14.3-1.6C584.5,233.73,585.2,232.13,586.6,227.13Zm-132.3,17.1c-2.4-.3-2.4,2.1-4.3,2.9s-3.7-1.2-4.8-1.2c-4.4,0-9.2,4.5-8.6-2.1,2.6.4,4.8-1.4,7.4-2,2.2-.5,5,.3,7.3.1s3.2-.7,4.6-.2A2.69,2.69,0,0,0,454.3,244.23Z"/>
            <path class="cls-5" d="M474.4,318.83c-2.4-2.5-12.3-5.4-8.7-10.3-1.9-.9-4.7.3-6.5-1.1-1-.8-1.8-4.2-2-5.4-.5-2.1,1.4-2.1-1-3.2-1-.4-3.5.4-4.7.3-.2-1.6-1.2-4.6-3.2-2.5-1,1.1-.3,4.8,0,6.1l-1.4.4c-1.5-2.2-6.9,0-6,3.2,2.8.9,5.7-.2,8.5.4,2.6.6,2.3,1,3.6,2.9a17.48,17.48,0,0,0,1.8,2.9c.1,1.6.5,2.3-1.8,2.1-2.1-.3-1.6-1.9-3-3.2-2.1-1.9-8.6-2.6-10.5.4l.6.3c-3.9.3-4.4,5.4.4,6.1.9.1,1.1-.9,2.2-1.1,1.5-.2,5.1-.5,6.4.3a16,16,0,0,1,3.3,4c.2.5.8.9,1.1,1.8.2.7-.7,2-.4,3,.4,1.3,3.8,3.8,5.6,1.7,1.4-1.7-1.8-2.9-.3-5.4,1.1-1.8,3.6.5,3.3-2.5,2.1,1.7,4.4,1.9,6.4,3.4,1.5,1.1,1.5,3.2,3.5,3.7C472.1,322.83,468.9,319.63,474.4,318.83Z"/>
          </g>
        </g>
        <circle id="Gradient_3" data-name="Gradient 3" class="cls-6" cx="515.5" cy="347.93" r="128.5"/>
        <circle id="Gradient_2" data-name="Gradient 2" class="cls-7" cx="539.7" cy="347.93" r="139.6"/>
        <circle id="Gradient_1" data-name="Gradient 1" class="cls-8" cx="533.7" cy="350.23" r="114.9"/>
      </g>
    </g>
  </g>
  <g id="Calque_27" data-name="Calque 27">
    <path class="cls-9" d="M1400.08,282.78l-23.58-12.46-28.5-18.5-28.39-10.5-21.61-27h-14s-16,15-17.5,17-15.5,11.5-15.5,11.5l-32.5,19.5,90.79,106,90.83-5.95Z"/>
  </g>
  <g id="Calque_17" data-name="Calque 17">
    <path class="cls-10" d="M0,337.73,36.58,330s25-4.93,30.7-4.4,27-20.59,32.7-19.7,28.81-5.56,35.91-12,33.48-35.78,39.29-37.11,57.82-30,65.15-25,21,23.65,31.85,25.65,27.06-8.66,39.6,9.34,50.72,41.22,59.3,49.61,48.65,31.51,51.6,45.05-2.29,24.43,16,37.45,66.69,25.82,74.9,29.89,33.21,12,40.64,9.33,70-17.52,80.3-20,25-40.87,32.08-50.44S699,335,699,335s13.44-.46,18.06,7.37,6.84,11.1,6.84,11.1,27.49-48.49,32.2-48.9,5.28-14.48,23.15-25.4S837,227.8,840,225.63s53.26-15.59,59.8-13.2S926.51,225.61,929,225s34.57-12.33,45.28-25.6,34.05-53.13,34.05-55.2,22.67-29.19,25.34-30.3,34.3-25.43,40.81-26.6,26-17.76,26-17.76,51,43.1,45,52,16.75,32.75,16.75,32.75,38,31.32,41.73,38.91,3,12.07,15,29.5,66,88.09,69.33,88.75,35.7,2.67,46.18,6,65.61,26.75,65.61,26.75V829.84H0Z"/>
    <path class="cls-11" d="M1052.33,110.48c3,2,7.67,11.34,13,14s13,4,17.34,2.34,9-6.67,16.66-2,19,14.33,21,14,0-11,3-10.34,10,11.34,12.67,12.34,17.4,3.27,14.51-1.18c-5.93-9.16-7.11-14.12-5-18.07,5.22-9.81-44.87-52.09-45-52s-19.5,16.58-26,17.76-38.15,25.49-40.81,26.6C1039.67,116.15,1049.33,108.48,1052.33,110.48Z"/>
    <path class="cls-12" d="M261.87,278.15c6.46.67,31.8,4.29,35.13,7.48s64.24,69.19,62.12,68.52-57.7-18.67-59.91-18.67-1.54,4.67-6.21,6-39.33-23.33-49.33-26-21.34,10-21.34,10,22,.67,24,1.34,40,32.66,47.34,39.33,50.66,16.67,50.66,16.67,63.34,24,66.67,32.66,57.33,38,70.67,40S539,458.82,539,458.82s46.67,2,55.33,0,46.57-20,51.95-20.67,40.05-21.33,43.39-26-2.67-29.33,0-45.33,13.88-31.75,16.11-31.21h0A32.92,32.92,0,0,0,699,335s-25.31,23.19-32.37,32.75-21.82,48-32.08,50.44-72.86,17.33-80.3,20-32.43-5.27-40.64-9.33-56.61-16.88-74.9-29.89-13.05-23.91-16-37.45-43-36.66-51.6-45.05-46.75-31.61-59.3-49.61-28.78-7.34-39.6-9.34-24.51-20.66-31.85-25.65C246.33,244.82,255.41,277.48,261.87,278.15Z"/>
    <path class="cls-12" d="M802.33,279.48c2-1.33,40.67-18,44-26.66s22.67-26.67,29.34-28,6.9-12.12,24.11-12.39c-6.54-2.39-56.81,11-59.8,13.2s-42.87,42.58-60.75,53.5-18.43,25-23.15,25.4-32.2,48.9-32.2,48.9,55.79-39.28,60.45-41.95S800.33,280.82,802.33,279.48Z"/>
    <path class="cls-12" d="M962.33,225c2-2.88,44-24.21,44-24.21s18-36,18.67-39.34,20.67-31.33,20.67-31.33,3.33-14.67,6.66-19.67,29-14.33,29-14.33l19.14-26.58s-19.5,16.58-26,17.76-38.15,25.49-40.81,26.6-25.34,28.22-25.34,30.3-23.33,41.92-34.05,55.2S931.5,224.44,929,225C929,225,960.33,227.9,962.33,225Z"/>
    <path class="cls-12" d="M1184.3,296.15l-62.36,30.78s-45.61,29.89-48.27,30.55-54.67,3.34-54.67,3.34l-52,56s-8,16-9.33,18-52.67,64-52.67,64l76.67-60,60.66-47.34h48.9l22.64-22,83.8-55.33L1216,266.82l11-12L1210.33,262Z"/>
    <path class="cls-12" d="M695,535s36.67-65.11,43.33-65,16-2.78,18.67-10.33,6.67-34.89,6.67-34.89,9.33-31.34,26-39.34,27.33-24,27.33-24,24.67-38.66,40-36.66,28.67-19.34,28.67-19.34,32.66-20.73,37.33-22.7c0,0-33.72,24-33.19,29.37s-8.14,15.33-14.14,17.33-23.34,1.34-28,7.34S831,372.6,825,377.37s-13.33,4.78-19.33,10.78-24,18-27.34,26.67-4,36-4,42S757.67,470,757.67,470s-16.67,9.44-18,14.78-15.79,48-15.79,48Z"/>
  </g>
  <g id="Calque_23" data-name="Calque 23">
    <path class="cls-13" d="M422.47,312.85h0q-.24-.54-.45-1.11A1.54,1.54,0,0,0,422.47,312.85Z"/>
    <path class="cls-14" d="M422.47,312.85l.22.45A.53.53,0,0,0,422.47,312.85Z"/>
    <path class="cls-13" d="M422.47,292.15h0q-.24.54-.45,1.11A1.5,1.5,0,0,1,422.47,292.15Z"/>
    <path class="cls-14" d="M422.47,292.14l.22-.45A.53.53,0,0,1,422.47,292.14Z"/>
  </g>
  <g id="Calque_16" data-name="Calque 16">
    <path class="cls-15" d="M1063,626.6c-13.33-1.78-41.33-27.12-55.33-30.45-6.74-1.61-23.51-16.63-45.34-32.87,13-4.37,62-20.93,50-17.62-13.8,3.8-58.48,11.35-75.53,0-17.77-11.09-37.2-20.53-56.47-23.86-56-9.68-168.66,7-223.33,6.32-34.32-.42-75.61-9.39-114.34-15.15a11.2,11.2,0,0,0-2.45-3.39,6.23,6.23,0,0,0-3.24-.17c-.91.19-3.26,1.66-3.42,2.27l-4.55-.59h.7l-4-4L524,508.84l-3.31-3.31-3.12,3.12a.16.16,0,0,0,0-.09c-.07-.13,0-.13-.17-.28a.42.42,0,0,0-.12-.08.36.36,0,0,0,0-.1c0-.09-.19-.07-.25-.22s-.12-.15-.24-.3-.34-.19-.39-.23-.21,0-.3-.08a.92.92,0,0,0-.46-.06h0l-.1-.12s0-.17-.12-.17a1.35,1.35,0,0,0-.3.08,1.09,1.09,0,0,0-.4.08c-.13.07-.29,0-.39,0s-.2,0-.26.1-.25.1-.3.2a.68.68,0,0,0,0,.47c0,.12,0,.21.06.26-.12.05-.26.21-.25.25s-.14.11-.14.2,0,.24,0,.3,0,.2.06.32.22.17.22.21l-1.39-.12v-8.16l-4.46-1.34v-3.59h.23l-3.32-10.94-3.32,10.94h.25v3.58l-4.48,1.35v7.23l-2-.05v-.39c0-.14,0-.33,0-.52.06,0,.05-.14.12-.17s.13-.26.21-.31,0-.07,0-.13a.4.4,0,0,1,.13-.06,1.67,1.67,0,0,0,.2-.08.57.57,0,0,0,.22-.22c.05-.06,0-.11.12-.12l.12,0s.06,0,.18-.09.11-.07.15-.16.09,0,.06-.2,0-.18-.05-.29,0-.11-.15-.24l-.1-.07s0,0,0-.08-.17-.06-.22-.2-.11-.13-.22-.26-.29-.16-.33-.19-.18,0-.27-.08a.88.88,0,0,0-.39-.05h0l-.09-.1s-.05-.15-.1-.15a1,1,0,0,0-.27.07c-.06,0-.23,0-.34.07a.44.44,0,0,1-.2,0l-3.61-3.61-4,4h.73l0,0v3l-2.45-2.45-3.26,3.26c-1,.05-2.06.1-3.07.17s-2,.11-3.08.14c-.14-.61-2.5-2.08-3.42-2.28a6.2,6.2,0,0,0-3.23.17,11,11,0,0,0-1.7,2c-57.77-2.57-179.82-43-269.38-40.53-96,2.67-197.49,58-197.49,58V743.34l584.66,65.48,555.51-140.66C1109.58,668.22,1076.33,628.38,1063,626.6Zm-546.15-117s0,0,0,0h.53l0,0v.3l-.72-.07Zm20.77,2.71-3.3-.45A18.22,18.22,0,0,1,537.62,512.27Zm-8.69-1.16v0l0,0Zm-35.22-2.83v-1.46l.08,0s.14.05.2.06v0c.1.12.31.07.35.14s.34.07.34.07a.78.78,0,0,1,.1.23,6.57,6.57,0,0,1-.06.93Z"/>
    <g>
      <path class="cls-16" d="M1063,626.6c-13.33-1.78-41.33-27.12-55.33-30.45-3.38-.8-9.27-5-17-11C974,578,959.7,572.17,947,567.6l22-9.38c-8.43,2.52-28.32,5.09-49.49.79q-3.59-.91-7.06-1.68h0c-23.11-5.09-42.78-5.15-67.94-2.18-48,5.67-144,26.69-189.5,21.68s-93-39-138-46-60.63,10-94.32,5.49-39.68-23-110.68-43-182.64-15.11-226.82-3.1a580.1,580.1,0,0,0-85,35.93L0,743.34l584.84,65.48,555.51-140.66C1109.58,668.22,1076.33,628.38,1063,626.6Z"/>
      <path class="cls-16" d="M969.14,558.18l.59-.18Z"/>
      <path class="cls-16" d="M970.18,557.87l.38-.12Z"/>
      <path class="cls-16" d="M969.73,558l.45-.13Z"/>
      <path class="cls-16" d="M969,558.22h0Z"/>
      <path class="cls-16" d="M970.56,557.75l.4-.11Z"/>
      <path class="cls-16" d="M969,558.21l.1,0Z"/>
      <path class="cls-16" d="M972.55,557.16l.35-.1Z"/>
      <path class="cls-16" d="M972.9,557.06l.15,0Z"/>
      <path class="cls-16" d="M973.05,557Z"/>
      <path class="cls-16" d="M971.42,557.5l1-.31Z"/>
      <path class="cls-16" d="M972.46,557.19l.09,0Z"/>
      <path class="cls-16" d="M971,557.64l.46-.14Z"/>
    </g>
  </g>
  <g id="Calque_20" data-name="Calque 20">
    <path class="cls-17" d="M389.64,674.65c31.36-13.83,141.23-39.79,180.63-43.81s228.8-13.41,314.8-45,281.93-87,353.93-81.67,161.08,33.45,161.08,33.45V782H389.64Z"/>
    <path class="cls-16" d="M1061.67,527.9C987,539.38,856,605.66,826,613S659,632.43,576.33,636c-60.75,2.65-150.86,31-191.7,48.28l5,78H1400.08V537.58C1242.5,464.73,1136.33,516.43,1061.67,527.9Z"/>
  </g>
  <g id="Calque_24" data-name="Calque 24">
    <path class="cls-18" d="M795.94,607.2c4,2.52,5.74,1.49,8.56-5.74.17-.5-18.5,4.33-21,3s-78.58,9-81.83,7.83-55.84,2.42-64.17,4-62.5,6.39-71.5,4-31.67-3.16-37.25-2.82-50.61,2.58-57.42,2.82c-9.16.34-51-3.76-56.66-1.32s-49.84.78-60.84-.67-73.16,3.7-87.83,2-42.17.74-47.5,1-19.67-2.08-26.67-1-57.79-1.9-67.46-1.16S88,621.46,72,620.12s-72,.34-72,.34l.16,83.67L674,693.05s56.29-14.5,115-30.18V610.12C789.08,610.12,795.94,607.2,795.94,607.2Z"/>
    <path class="cls-19" d="M919.5,624.62c-.67-5-28.33-3.66-29.7-4.66s-3.3-.84-5.63-.84-8.67-.66-9.11-1.65-21.39.65-25.56,0-4-6.51-3.5-8.18-4.83-2.83-9.67-2.09-14,.26-12.66-1.41-3-3-5.62-2.55-13.72-1.28-13.55-1.78c-9.21,3.2-8.56,5.74-8.56,5.74s-6.86,2.92-7,2.92v52.75C853,645.75,919.85,627.23,919.5,624.62Z"/>
    <path class="cls-20" d="M833.5,622.89c-49-7.65-37.56-15.69-37.56-15.69S635.5,620,600.25,622.89H.18v75.82s52.82,10.08,323.2,5.42C506.9,701,645.84,680.38,721,662c.71,0,164.09-32.94,179.36-36C895.64,626.87,875.7,629.48,833.5,622.89Z"/>
    <path class="cls-21" d="M900.36,626a86.82,86.82,0,0,1-11.29,1.09l1.4.9Z"/>
    <path class="cls-22" d="M890.47,628l-35.2,7.1c21-2.14,39.59-4.27,39.59-4.27Z"/>
    <path class="cls-23" d="M890.47,628l-1.4-.9c-10.61.45-28.5,0-55.57-4.22-49-7.65-37.56-15.69-37.56-15.69S635.5,620,600.25,622.89H.18L0,637.46c43.63,8.73,158.33,16.21,209,18.83,69,3.56,174.5-4.68,201-4,9.19.24,34.9.23,66.47-.08l-1,.08c33-.49,60,10,63.5,9.49s41.5-4,52,0,36.5,0,48,4,196-9.51,196-9.51L811.83,639c11.73-.76,28.22-2.31,43.44-3.86Z"/>
    <ellipse class="cls-24" cx="502.13" cy="630.95" rx="19.79" ry="1.65"/>
    <ellipse class="cls-24" cx="527.79" cy="637.6" rx="19.79" ry="1.65"/>
    <ellipse class="cls-24" cx="555.91" cy="635.37" rx="19.79" ry="1.65"/>
    <ellipse class="cls-24" cx="555.91" cy="638.14" rx="19.79" ry="1.65"/>
    <ellipse class="cls-24" cx="536.13" cy="639.79" rx="19.79" ry="1.65"/>
    <ellipse class="cls-24" cx="506.29" cy="643.09" rx="19.79" ry="1.65"/>
    <ellipse class="cls-24" cx="514.91" cy="645.73" rx="19.79" ry="1.65"/>
    <ellipse class="cls-24" cx="559.91" cy="644.08" rx="19.79" ry="1.65"/>
    <ellipse class="cls-24" cx="545.87" cy="646.55" rx="15.63" ry="1.3"/>
    <ellipse class="cls-24" cx="546.17" cy="660.29" rx="16.49" ry="1.37"/>
    <ellipse class="cls-24" cx="512.92" cy="656.78" rx="16.49" ry="1.37"/>
    <ellipse class="cls-24" cx="547.86" cy="653.21" rx="16.49" ry="1.37"/>
    <ellipse class="cls-24" cx="570.59" cy="650.09" rx="9.1" ry="0.76"/>
    <ellipse class="cls-24" cx="493.02" cy="653.21" rx="9.1" ry="0.76"/>
    <ellipse class="cls-24" cx="489.02" cy="648.29" rx="9.1" ry="0.76"/>
    <ellipse class="cls-24" cx="518.27" cy="664.96" rx="9.1" ry="0.76"/>
    <ellipse class="cls-24" cx="573.87" cy="659.68" rx="9.1" ry="0.76"/>
    <ellipse class="cls-24" cx="521.61" cy="649.61" rx="16.49" ry="1.37"/>
    <ellipse class="cls-24" cx="502.99" cy="646.9" rx="16.49" ry="1.37"/>
    <ellipse class="cls-24" cx="518.91" cy="634.55" rx="19.79" ry="1.65"/>
    <ellipse class="cls-24" cx="504.96" cy="639.25" rx="19.79" ry="1.65"/>
    <ellipse class="cls-24" cx="543.2" cy="644.08" rx="19.79" ry="1.65"/>
    <ellipse class="cls-24" cx="564.77" cy="630.95" rx="19.79" ry="1.65"/>
    <ellipse class="cls-24" cx="573.44" cy="634.84" rx="19.79" ry="1.65"/>
    <ellipse class="cls-24" cx="569.1" cy="640.9" rx="19.79" ry="1.65"/>
    <ellipse class="cls-24" cx="500.67" cy="635.95" rx="19.79" ry="1.65"/>
    <ellipse class="cls-24" cx="523.41" cy="630.34" rx="19.79" ry="1.65"/>
    <ellipse class="cls-24" cx="534.7" cy="628.69" rx="19.79" ry="1.65"/>
    <ellipse class="cls-24" cx="543.79" cy="631.99" rx="19.79" ry="1.65"/>
  </g>
  <g id="Calque_15" data-name="Calque 15">
    <path class="cls-25" d="M1390.58,550.66l1.13,1.33-12.08-.66,1.71,1.42-12.8.75,1.22.7h-8.22l1.23,1.16h-9.83l3.55,1.21-8.28.55,2.13.78-7.94.72,2.67.52-9.67.75,3.78.76-9.72,1,3.94.57-13.52,1.37,6.34.73-18.47,3.9,4.82.46L1298.81,572l2.62.53L1286.81,576H1292L1274.69,581l4.87-.12L1260.44,586h6.39L1246.19,592l5.18.33-19.18,5h7.13L1223.06,602l5.9-.25h0l-17.83,5.06h5.45l-19,5,6.81-.19h0l-16.43,4.31-5,3.28h0l.84-5.4-1.56,4.5-4.19-7.25,2.82,6.87-4.75-1.5,5,3.37h0L1161,622.85l4.19.81L1150,624.83c-6.53-4.69-17.43-13.56-18.16-20.84,0,0,10,8.73,23,9.63s16.55-6.8,16.55-6.8-7.93,7-23.46.23-15.53-9.86-15.53-9.86,14.4,10.09,28.79,1.93a33.32,33.32,0,0,1-30.06-8.52c.43-4,.82-7.58.82-9.17,0-1.87-1.07-7-2.06-12.22a6.91,6.91,0,0,0,1.6,1.34s-3.47-10.67-3-14.17c0,0,7.36,13.72,16,16.21,0,0-10.55-9.63-12.36-14.51,0,0,13.15,11,26.07,8.84a44.36,44.36,0,0,1-21.88-8.38s21.2,5.55,26.3-2.95c0,0-4.87,6-18,2.95s-15.25-8.16-15.25-8.16h0c1-6.33,2.37-16.09,2.62-21.4,1.34,2.6,3,4.91,5,5.64a97.51,97.51,0,0,1-6.37-13.76h0s8,9.68,25.29,5.66c0,0-11.45.9-24-7.27,3.08,1.91,12.22,6.53,21.81,1.09,0,0-8.77,4.09-24.33-5.21h0c-1-4.72-2.1-10.16-3.15-14.41v0s7.82,10.23,15.1,9.77c0,0-9.35-5.89-10.71-9.06,0,0,14.06,1.81,17.69-.16-10.12-.81-19.44-2.47-24.86-8.23,0,0,1.28,11.41-14.89,16.25,0,0,14.24-2.28,15.66-10.82,0,0-1.76,11.87-12,18.83,0,0,9.49-6.18,12.87-12.74.42,3.37.85,7.1,1.16,10.59,0,0-13.11,12.8-30.44,10.19a46.39,46.39,0,0,0,18-.34c7.51-1.68,10.41-3.91,11.32-4.81-2.07,2.31-12.8,13.84-23,16.49,0,0,19.76-4.65,24.56-13.6h0c-.05.23-2.54,11.13-9.94,14.84a20.65,20.65,0,0,0,8.77-6.51c-1.11,4.92-2.71,11.75-3.61,18.52h0c-12.19,7.49-40.53,6-40.53,6s26.64,4.76,39.22-1.93a85.22,85.22,0,0,1-27.2,15.76s17.51-1.45,27.85-12.57c0,0-3.82,10.53-10.17,15.4a32.79,32.79,0,0,0,10.34-8.77c.62,10.68,1,19.13-1.72,24.41l-.71,1.39h0A64.78,64.78,0,0,1,1098.59,601c-12.16,4.09-31.51,0-31.51,0s19.5,5,32.34,3.33c8.28-1.07,12.75-3.39,14.89-4.91-4.59,3.81-18.38,14.09-36.5,17.15,0,0,22.45-3.08,37.24-12.15,0,.35,0,.7-.08,1.06-4.7,5.17-16.09,17.21-23.07,20.39,0,0,13.95-6.1,22.75-13.53-.3,6.36-.89,13.17-3.55,16.15l-1-.08.66.44-.33.25-9.9-.62,2.13,1.31-9.94-.63-9.11,1.34h0l1.87-1.84-14.45,1.53,3-1.78-14.63,1.72h0l4.88-2.4-14.31,1.56,3.12-1.5-17.68,1.06,4.25-1.31-17.69,1.2h0l3.26-1.51-15.13.9,3.13-1.22-17.13.55h0l6.13-1.3-15.81.8,3.31-4.07-3.88,3.27L984,621.35l.44,4.19-3.75-1.06,2.62,1.75-9.06-1.82,1.56,2-11.72-1.63-7.25.74,1.85-1.55-8.83,1.28.55-2.19-3.69,2.08-4.66-1.2-4.16.95h0l2.35-3.69-2.53,2.44c-.22-1.71-.41-3.83-.58-6,2.93,2.14,5.85,4,7.8,5.27-3-2.42-6.17-6.87-8.1-9.84q-.06-1.09-.12-2.1c13.62,6.31,37,4.55,37,4.55-23.32-3.39-34.14-23.29-34.14-23.29,4,4.75,23.77,11,23.77,11-14.17-5.2-21.79-21.71-21.79-21.71,6.1,4.52,16,5.2,16,5.2-11-5.88-17.67-21.83-17.67-21.83a53.16,53.16,0,0,0,9.29,4c-5.79-3.28-14.17-18.54-14.17-18.54,2.89,1.13,10.82,2.37,10.82,2.37-4.73-1.58-16.46-15.83-16.46-15.83,3.2,14.93-13.26,32.34-13.26,32.34,2.29-.45,11.28-5.88,11.28-5.88-.31,4.3-12,18.89-12,18.89,5.11-1,11.19-4.87,11.19-4.87-.46,5.2-18.9,15.83-18.9,15.83,7.47,1.25,18.14-3.61,18.14-3.61,0,5.2-23.63,15.8-23.63,15.8,6.4,2.12,21.49-2.91,21.49-2.91.31,4.41-24.53,13-24.53,13,14.82,2,28.07-3.49,29.94-4.31.16,2.66.3,8.21-.88,12.2-.1.33-.22.65-.35,1l-1.11.51,1.22-2.94-1.47,2.75s-2.4-5.34-2.4-5.22,1.78,5.28,1.78,5.28l-7.28-.43.87.66-7.91-.41,1.22.73-10.28-.3,1.29,1-7.57-.43,2.19.9h-.1l-8.4-.06,1.47.73L885,627l.81.54-6.37,0,1.44.5-6-.09,1.13.62-3.85-.22-2,.9.73-3L869.75,629l-.75-3.88.28,3.88-1.75-.66,1.45,1.1-7.14,0,.91.63-6.41.06,1.81.65-7.31.09,1.76.6-8.88.26,1.58.66h-5.77l1.19.59h-5.16l1.06.53h-5.78l1.26.59-4.94-.19,1.14.69-5.55-.12,1.41.67h-6.38l2.07.58-5.63.15,1.52.41-6-.22-2,1.3L809,634.5l-1.83,2.37-.34-5.62-.37,5.62-3.83-1.46,3.23,2.2-9.23.43,2.32.53h-7.74l2.46.74H786l2.38.73-8,.29,2.36.51h-8.49l2.17.9-4.79-.28-2.92,1.38-.21-1.59-.6,1.71-3.44-3.13,1.58,3.4-5.58-.33,1.9.86H754l2.35.87-8.56.37,1.6.65-7.68.26,2.3.53-8.8.47,2.71.42H726.69l1.83,1.4h-9.58l2,1.13-8.09-.38-5.21,2.37.89-1.69-1.81,1.38V646.1l-.94,5.44-2.87-1.94,2.25,2.62-9.56.55,1.91.61-10.66.47,1.63.89-9.82.49,1.47.79-8.35.27.68.9h-8.24l1.66,1h-7.78L654.38,660h0l2.18-2.93L653.25,660v-5.74l-1.16,6.09h-9.46l2.31,1.11-11.75.45,3,.9h0l-9.51.45,1.95.72-7.76.53,1.57.44h0l-11.36.74,2.77.6h-6.27l2.17.63h0l-11,.81,2,.61-6.29.2,1.74.51h0l-7.43.27,1.58.64h0l-9.74.3,2.39.85h0l-7.17.3,1.74.54h0l-5.64-.13,1.46.77h0l-4.81-.15-2.21,1.17h0l1.81-1.92-2.57,1.92.32-3.38-1.14,3.58h0l-.8-2v2h-6.63l1.42.67h-6.6l-1.53.77h0l.47-1.83-.91,1.83L549,672.39l.65,2.91h0l-7.07-.16,1,.67h0l-4-.37.88.61h0l-4.51-.22.7.51h-5.18l.82.31h0l-3-.28-1.5.59h0l1.14-1.23L527.21,677v-2.69l-.4,2.69-1-.73.4.83h0l-2.51-.15.35.3h0l-3.33-.25.66.42h0l-3.25-.25.48.43h0l-3.59-.25.56.44h0l-3.49-.27.61.44h0l-2.88-.21-1.92.5h0l.89-1-1.23.92-.45-1.65.05,1.75h0L503,678l.64.47h0l-3.46-.32s1.11.45,1.12.45h0l-3.51-.21.77.36h0l-2.42-.23.8.32h0l-2.63-.24.89.34h0l-2.73-.2.89.3h0l-3.41-.18,1,.31h0l-3.25-.18,1.19.29h0l-5.11-.17,1.49.36h0l-4.9-.22,1.81.38h0l-4.82-.19,1.84.34h0l-2.59-.17-.78.34h0l.83-1.23-1.37,1.08.2-1.73-.52,1.67-.36-.66.24.92h0l-2.58-.28.7.37h0l-2.61-.31a8.76,8.76,0,0,1,.81.4h0l-2.93-.32.61.43h0l-2.5-.24.73.33h0l-2.9-.25.58.36h0l-2.19-.16.7.23h0l-1.73-.12.23.19c-43.37,2-82.25,3.38-82.25,3.38V999.5H1400l.12-447.71Zm-236,75-3.19.18-.87-.62ZM1135,627.6l-2.34.61a2.18,2.18,0,0,1-.74-1.21c0-.46-.13-1.4-.25-2.65h0c-.27-2.85-.69-7.33-1.06-11.36a45.31,45.31,0,0,0,17.26,13l-10.74.57,5,.69Z"/>
  </g>
  <g id="Calque_14" data-name="Calque 14">
    <path class="cls-26" d="M923.21,760.2l2.1-.82-2.23-.29.64-1-5-1.33,2.2-.45-6.78-1.89,1.87-.58-6.88-1.92,2.32-.2c.09,0-6.36-1.78-6.36-1.78l2.36-.6L900,747.48l1.73-.38-6.54-1.89,1.45-.42-6.43-1.92,1.33-.55-8-2.53,1.8-.38-8.25-2.56,1.56-.28-8.5-3.06h2l-7.78-2.6h3.25l-9.53-2.84h2.28l-10.75-3.62,1.69-.32-9.94-2.9,1.83-.2-4-.79,1.18-.18-3.85-.87,1.83-.22-3.91-.64,1.36-.19-4.26-1.06,1.17-.11-4.28-1.11,1.38-.08-3.86-.93,1-.23-3.62-.82,1.34-.2-4-.87,1-.26-3.42-.8h1l-3.58-.91,1.08-.22-4.27-1.09,1.22-.21-4.62-1.08,1.42-.11-3.93-.87,1.76-.2-4.78-1,1.51-.39-5.43-1.08,1.29-.38L795,703s.76-.15.78-.18-4-.77-4-.77l.59-.32-3.1-.78a4.46,4.46,0,0,0,.52-.08c.06,0-2.72-.51-2.72-.51l.63-.24-3.46-.8.57-.28-4.9-.87.41-.31-4.23-.57.93-.39L773,696l.72-.39-5.25-.37.81-.69-8,.13L762,694l-7.9.31.37-4.44-1.37,5-1.91-4.06,1.34,4.22-6.31-1.35,1.81,1.53-8.18-.62,2.75,1.09-7.79-.94,1.79,1.5-5-.18-3.62.93v-4l-1.51,4.26-2.06-1.83,1,1.92-5.25-.42,1.87.92-4-.09-6.35,1.19.81-1.21-7.21,2-.35-3.77-.15,3.65-2.27-2,1.9,2.31-4.17-.37-6,1.29.83-1.17-15.58,3.25a5.62,5.62,0,0,0,.79-1.87c-.5.58-10.71,2.58-10.71,2.58v-6.83l-1.75,6.66-3.5-4.33,2.84,5.09-16.84.62,5.17,1.39-20.17.15,4.3,1.83-17.32,0,5.52,1.5-16.58.25,4.72,1.35-12.16-.41,2.6,1-11.19-.41,2.84.88-14-1.34,2.19-4.25-4,4.09-.94-3.47-.34,3.47-7.34-2-13.25-1.66,2.06-.53-15.31-2.18,3.87-.79-19.5-3.06,4.53-1.22-22.5-2.81,7.57-1.22L500.72,693l2.22-1.84-19-2.54,4.08-2.81-22.76-2,3.95-1.43-5.49-.85,1.55-.71-6.38-.6,2.19-1-6.5.56h0l6.5-7.12-7.87,5.87-2-4.75.92,5.77-9.33-.88,5.41-1.58-10.93-1.45,6-1.5-19.67-.65,1.3-1.83-20.95,1.19,5.13-1.88-13.95-.1,4.47-2.57-26.71,2.42h0l.69-1.5L343,673.5c-1.29-.55-.11-2-.11-2-1.25-.23-10,2.19-10,2.19a2.23,2.23,0,0,0,0-1.55c-.93,1.25-12.87,1.8-12.87,1.8l-1.25-.76-2.82.7.7-3.44-1.36,3.32c-.24-2-1.21-1.8-1.21-1.8.82.22.61,1.93.61,1.93s-2.33-.84-2.33-.87-5,.89-5,.89l2-2.1L306,673.48c.27-1.27-1.27-1.69-1.27-1.69,1.23.92-.67,2.08-.67,2.08l-3-.52-3.2.84-.61-1.44c-1,1.41-3.94,1.5-3.94,1.5l1.32-1-12.88,1.56h0l2.11-.94-12.69,1,1.41-.87-9.78,1.08-2-.51-3.71.63c-.12-1,1.08-1.61,1.08-1.61-.66-.11-2,1.54-2,1.54l.37-2.49-.87,2.56s.06-.11-.27-1.08a.91.91,0,0,0-1.2-.63c1.11-.17,1.12,1.83,1.12,1.83l-1.31-.5-2.38.71h0a2.07,2.07,0,0,0,.67-1.85c-.27.85-4.59,1.93-4.6,1.94h0a3.72,3.72,0,0,0,1.64-1.92c-.61.93-9.29,2.08-9.32,2.08h0c.07-.53,2.16-1.82,2.16-1.82-1.17,0-7.28,1.93-7.29,1.93h0c.49-.48.46-1.79.46-1.79-.55,1.17-5.94,1.9-6,1.9h0l.89-1.23-8.69,1.37h0a2.75,2.75,0,0,0,1.64-3.16c-.6,2.77-5,3.2-5.1,3.21h0a2,2,0,0,0,.83-1c-1.22.82-6.74,1-9.43,1.08l-1.49,0,.47-1.51c-1.63,1.06-16.53,1.58-16.53,1.58l2-1.39c-1.62,0-20.34,1.38-20.49,1.39h0l1.41-1.61L156.33,676l1.38-5.64-2.52,4.19a2.57,2.57,0,0,0-1.88-2.5c1.29.6.72,3.93.71,4h0c-2.08-.38-5.34-2.62-5.34-2.62-1.45.92-11.56,1.62-11.94,1.65h0c.35-.38,6.78-2.91,6.78-2.91-.76-.06-17.55,1.61-18,1.65h0a58.9,58.9,0,0,0,5.67-1.92c-1,.37-14.7.29-14.79.28h0c.61-.71,5.35-1.36,5.35-1.36-.23-.08-2.63-.31-5.64-.58a81.88,81.88,0,0,1-.1-12.36c.25-3,.43-7.06.84-11.14,1.23-.15,1-2.87,2.57-3.46s2.72-5.64,4.28-6.64c.68-.44.93-1.52,1.06-2.84a9.41,9.41,0,0,1,2.64-1.22c2.82-.88,1.56-.59,4.28-1.85s3.7-3.41,4.77-4.67.88-2.16,2.53-2.45,2.53-.47,2.53-.47,1.17.87,3.89-1.95,2.34-1.36,3.12-3.41,1.94-.58,1.36-4.28.2-3.7-1.17-6,.59-2.34-3.11-5.16a21.2,21.2,0,0,0-2.27-1.55c.27-.87.16-.86.42-1.76.5-1.71-3.6-1.27-4.67-4.19s-2.34-2.72-4.58-5.54-6.13-3.41-7.1-4.09-3.89-.39-5.65-1.66-6.61-1.16-8.36-1h0l-.29-.34c.94-.2,2.37-.92,4.39-3,4-4.17,3.46-2,4.61-5s2.88-.86,2-6.33.28-5.48-1.73-8.94.86-3.45-4.61-7.63a33.4,33.4,0,0,0-3.37-2.29c.42-1.3.24-1.27.63-2.61.75-2.53-5.33-1.87-6.91-6.19s-3.46-4-6.77-8.21-9.08-5-10.52-6-5.76-.58-8.35-2.45-9.8-1.73-12.38-1.52h0c-1.4-1.67-2.75-3.23-2.75-3.23S65.8,514,64.07,513.8s-6.19,1.73-8.35,2.31-7.49-.14-10.95,2-7.78.14-10.51,1.29-5.48.58-7.21,2.74-6.77,2.59-8.35,5.33-2,9.51-.72,12.82-.29,5.81,1.58,7.16c-3.31,1.34-7,5.95-6.91,6.81s-3.6,3-3.6,5.47-.87,6.77.72,8.21.72,5.62,1.58,8.79,6.2,4.87,6.2,5.89.86,6.5,2,8.8,3.46,5.62,5.19,5.62,2.59,2,4.46,2.16c1.43.11,4.28,1.81,6.45,2.45l.18.25c2.88,3.7,9.51,2.2,10.95,4.36s10.69,2.06,10.72,2.06c1.74,3.13,2.93,5.76,3.1,7.3.5,4.38-.59,23.16-3,36.94a35.46,35.46,0,0,0-5,3.87c1-1.51.7-4.91.7-4.91s-.5,2.33-1.25,2.79-12.58.25-12.58.25l1.13-1.81c-.88.2-19.33.25-19.33.25a1.68,1.68,0,0,0,.53-1.48c-2,.75-21.85.76-21.85.76V916.22h941.4ZM103,669.07h0a18.85,18.85,0,0,1,2.34-.79c-.05.32-.09.65-.14,1Zm-45.56-15.6c-.22,1.24-.46,2.44-.7,3.58H56A6.19,6.19,0,0,1,57.48,653.47Zm33.87,12.45,2.94-1.15c-1.23-.61-13.81-1.92-13.81-1.92.36-.22,4-1.19,4-1.19a78.29,78.29,0,0,0-9.1-1.16c-1.85-8.22-1.93-20.87-1.41-27.14.28-3.38.5-7.65.86-12.14,1.25,1.11,3,1.82,3,2.3a21.68,21.68,0,0,0,1.36,6c.78,1.56,2.34,3.8,3.51,3.8s1.75,1.36,3,1.46c1,.07,2.89,1.21,4.36,1.65l.12.17c2,2.5,6.42,1.48,7.4,2.94s7.22,1.4,7.24,1.4a16.67,16.67,0,0,1,2.1,4.93c.3,2.66-.26,13.19-1.55,22.06l-14.08-2Z"/>
  </g>
  <g id="Calque_13" data-name="Calque 13">
    <path class="cls-27" d="M1400.08,999.5,1400,697.14V693.6l-9.11-6.37s8.93,7.53,8.22,10.17h0c-.36,0-12.81,1.59-19-.81l-6.27-2.44s9.27,5.59,12.79,6.61h0c-.35,0-17,1.47-21-.54-2.66-1.37-2.88-2.64-2.73-3.34-.6,1.6-1.8,6.32,3.83,8.25h0c-.14,0-11-1.49-11.92-3.79a7.11,7.11,0,0,0,4.48,5.2h0c-.12,0-8.65-.63-10.1-2.59l1.85,4h0s-6.33-4.79-5-8.87c0,0-1.89,4.54-.19,7.63,0,0-7.35-6.25-10.06-6.88a20.68,20.68,0,0,1,6.92,9.46h0c-.09,0-9.92-.87-12.41-.71a11.33,11.33,0,0,0-3.66.71s5.77.25,5.14,1.61h0s-15.73-.05-18.93-.94c1.41.68,5.13,2.42,6.65,2.55h0c-.69.05-11.5.69-10.37-3.53a4.23,4.23,0,0,0,.62,4.68h0s-6.49-6.62-7.74-7c0,0,3.88,4,4.79,7.28h0s-3.16-3.91-4.79-4.24c0,0,2.51,2.11,2.78,4.45h0c-.1,0-10-3.07-13.19-2,0,0,5.81.49,6.72,2.62h0c-.24,0-10.17-.31-10.79-2.25,0,0-2.4,3.25-4.48,3.63h0a15.23,15.23,0,0,0,3.16-8.58s-1.21,5.7-3.38,6.87a9.27,9.27,0,0,1-.91-4.54,16.55,16.55,0,0,0-1.05,5s-1.5-8.58-3.75-10.63c0,0,2,5.92,1.88,10.59s-27.25-2.91-32.75-2.64c0,0,9.83,3,10.75,4.16,0,0-13.17-1-16.42-1.94a43.27,43.27,0,0,0,3.54,2.75s-2.94.12-6.41.06c-.78-4.73-1.44-11.6-2-18.75,7.39,5.4,14.79,10.21,19.72,13.31-7.6-6.12-15.6-17.37-20.49-24.86-.1-1.84-.2-3.62-.29-5.32,34.43,16,93.49,11.51,93.49,11.51-59-8.58-86.32-58.9-86.32-58.9,10,12,60.11,27.73,60.11,27.73-35.83-13.15-55.1-54.89-55.1-54.89,15.41,11.43,40.46,13.15,40.46,13.15-27.74-14.87-44.7-55.19-44.7-55.19a135,135,0,0,0,23.51,10c-14.64-8.29-35.84-46.89-35.84-46.89,7.32,2.86,27.36,6,27.36,6-11.94-4-41.62-40-41.62-40,8.1,37.74-33.52,81.78-33.52,81.78,5.78-1.15,28.51-14.87,28.51-14.87-.77,10.87-30.22,47.75-30.22,47.75,12.94-2.57,28.3-12.29,28.3-12.29-1.16,13.15-47.78,40-47.78,40,18.88,3.14,45.85-9.15,45.85-9.15,0,13.15-59.73,40-59.73,40,16.19,5.36,54.34-7.37,54.34-7.37.77,11.15-62,32.89-62,32.89,37.5,5,71-8.84,75.71-10.9.36,6.08.69,18.11-1.45,27.81-1.76-3.58-3.58-7.23-3.91-7.62,0,0,1.92,5.65,3.3,10.06-.06.2-.11.4-.17.59a28.23,28.23,0,0,1-2.56,5.9,7.08,7.08,0,0,1-1.94-.18,4.36,4.36,0,0,1-3.59-4.29s-.79,2.71.3,4c0,0-9.63-4.7-7.75-10.24,0,0-2.34,5.08,1.25,9.45,0,0-6.87-.62-8-2s-.94-1.86-1-1.83-1.68,3.83-4,4.37a10.4,10.4,0,0,1-1.21-4.87s-.7,4.12-.66,5a18.11,18.11,0,0,1-1.09-7.71s-3,5.54-3.21,7.92c0,0-5.33-6.46-4-10.71,0,0-2.91,3.21-1.08,9.87,0,0-17.12-4.08-21.37-3.89,0,0,4.62,1.31,3.62,3.12,0,0-9.51-1.39-10-7,0,0-1,4.41-.36,6.66,0,0-9.14-2.82-9.32-6s5.07-7.75,5.07-7.75-9.82,4.37-6,12.25c0,0-4.94-9.94-3.94-14.75,0,0-2.19,9.44,1.37,15.44,0,0-14.27-3.36-14.12-5.74,0,0-3.75,3.8-2.75,6l-11-3s4.69,3.5,4.75,3.87c0,0-11.83-1-12.5-3.81,0,0-.13,3.23,1.25,4.25l-16.69-2.62,6.74,4.34-11.86-3-2.55,4.25s-.77-12.56,2.92-16.31a22.85,22.85,0,0,0-6.5,16.31s-5.37-11.25-3.31-17.87c0,0-4.57,7.1-.47,18.71,0,0-12.13-2.61-15.78-4.84,0,0,1.84,5.24,4.73,6.34,0,0-16.23-.09-18.29-1.59s-2.19-2-2.19-2,1.08,6,5.45,6.12l-16.08-.49-5.7,5.19s-7.48-3.38-8.3-5.44a16.81,16.81,0,0,1-.66-5.48s-1.72,10.75,3.81,12.21l-13.93.84c-1.72-2.54-5.72-2.56-7.38-5.13-1.89-2.93-10-3.76-11.6-6-.27-.36-1.75-.84-4.07-1.4-.14-.43-.25-.8-.31-1-.33-1.51-8.41-6.39-8.58-8.41s-4.54-5.21-4.54-6.39-7.9-4.37-9.08-7.57-5.66-3-5.89-3c-1.33,0-4,1-5.21,1s-5.89,5.22-9.92,6.56-8.41,7.91-10.1,8.58a2.53,2.53,0,0,0-.93,1.08c-2.62.22-5.43.91-7.1,1.15-2.65.38-3.53,4-5.93,4.67s-4.66,4.66-6.3,5.17-3.65,6.49-3.65,6.49h0a23.17,23.17,0,0,0-2.3,2c-5.52,5.38-2.38,7.4-5.07,8.58s-2,8.58-5.72,14.3-1.85,6.56-2,8.24c-.11,1.15,3.77,4.64,7.15,7.82l-10.4,2.05,3.67,1.66-20.83,4.5,1.41.92s-4.33,2.33-6.83-2.58c0,0-.17,3.41-6.33,4.75,0,0,2.86-3.15,4.41-11.75,0,0-5.91,11.66-10.25,13.66,0,0-1.41-16.16-6.83-20.58,0,0,4.68,13.21,2.8,21.77h0l-22.16-4.83L827,784s-11.3,1-13.19-4.44c-1.16-3.35-.89-5-.51-5.72-1.4,1.76-5,7.23-1.36,13.28,0,0-9.44,1.38-12.19-1.31s-2.54-4.39-2.54-4.39-1.28,5,2.16,8.12h0c-.34,0-19.2-1.24-23.11-5.48,0,0,1.37,5.31,5.5,7.41h0c-.08,0-16-1-14.61-10,0,0-2.75,4.62,4.24,11h0l-17.43-4.25s3.11,3.48,1.62,5.49h0c-.08,0-7.95-2.47-7-7.76.78-4.3,1.53-5.39,1.78-5.65-.73.61-5.72,5.16-2.47,13.92h0l-17.81-8.5s6.5,5.94,4,8.75L719.5,783.29s4.5,8.94,2.81,11.5l-17.56-3.5,6.31,3-12.81-3.81,2.44,3.87s-3.44.81-5.44-1.25-2.19-3.5-2.19-3.5.69,4.75,1.07,5.19c0,0-8.55-6.92-6.38-11.33,0,0-3.79,6.16-.35,11.66L665,789.31l5.06,3.4s-20.58-.42-23-4.25c0,0-.25,3,4.59,4.91l-14.59-2.08L630,793.87s-.62-10.37,3-12.85c0,0-7.38,4-6.38,11.44,0,0-7.34-13.49-10.25-15.87,0,0,3.67,9.95,3.75,16.62,0,0-27.15-2.72-26.24-2s3.91,1.53,3.08,2.36-12.75-1.41-12.75-1.41l1.75,2.58s-30.27,1-33.17-1.87c0,0,3.13,3.62,3.94,3.74,0,0-14.44-.56-17.5-1.56a17.77,17.77,0,0,1-9.13,5.31s5.13-9.56,2.69-17.31c0,0,.63,11.81-4.75,16.5a68,68,0,0,0,2.51-7.81s-3,8-4.75,9.57c0,0-2-11.45,2.87-18.45,0,0-7.38,5.71-5.19,18.45,0,0-6.56-10.45-6.5-10.13s3.69,9.81,3.69,9.81-10.13-1.5-16.88-2.19c0,0,5.21,2.52,3,4.79,0,0-11.94-1.75-12.35-5.93,0,0,.14,6.6,2.74,7.21l-11-1.76-1.3,3.53s-7.46-.94-8.34-3.61c0,0-.53,4.2.82,4.77,0,0-14-4.29-14-4.12s5.51,4.12,5.51,4.12l-9.68.44,3.37,1.19h-7.19l-1.59-7.33s.29,9.08,0,8.76-7.72-9.37-7.72-9.37l5.75,8.5-8.25-3,5.81,3.88s-4.18,2.49-8.12,2.06a13.1,13.1,0,0,1-6.38-2.44l2.63,4s-14.21-.52-15.75.23c0,0,5.65.35,6.31,1.18l-16.88,2.65h4.57s-.83.26-2.05.6a61.62,61.62,0,0,1-8.2,1.34,5,5,0,0,1-1.56-.25,3.05,3.05,0,0,0,.4.36,81.17,81.17,0,0,1-63.43-22.22h0c1.06-9.6,2-18.41,2-22.27,0-4.53-2.59-17-5-29.7a17.09,17.09,0,0,0,3.9,3.27s-8.45-25.93-7.41-34.43c0,0,17.88,33.32,38.81,39.38,0,0-25.61-23.41-30-35.25,0,0,31.95,26.72,63.35,21.48,0,0-26.44-1.1-53.16-20.38,0,0,51.5,13.5,63.9-7.16,0,0-11.85,14.6-43.79,7.16s-37.05-19.8-37.05-19.8c2.47-15.39,5.75-39.1,6.35-52,3.26,6.32,7.38,11.93,12.24,13.69,0,0-10.81-19.22-15.45-33.43h0s19.31,23.53,61.45,13.74c0,0-27.84,2.21-58.22-17.64,7.46,4.64,29.68,15.85,53,2.63,0,0-21.3,9.94-59.12-12.66-2.36-11.45-5.09-24.68-7.63-35v0s19,24.86,36.7,23.76c0,0-22.71-14.32-26-22,0,0,34.15,4.4,43-.37-24.59-2-47.24-6-60.41-20,0,0,3.12,27.72-36.17,39.47,0,0,34.61-5.54,38-26.27,0,0-4.26,28.84-29.23,45.73,0,0,23.07-15,31.28-30.94,1,8.18,2.05,17.25,2.81,25.72,0,0-31.82,31.11-74,24.78a113.21,113.21,0,0,0,43.79-.83c18.25-4.08,25.28-9.5,27.5-11.69-5,5.6-31.11,33.62-55.87,40.06,0,0,48-11.3,59.69-33h0s-6,27-24.16,36.08c0,0,12.79-4.4,21.32-15.82-2.69,12-6.59,28.55-8.79,45h0C288.87,717.78,220,714.2,220,714.2s64.72,11.56,95.29-4.68c0,0-28.09,25.61-66.09,38.28,0,0,42.54-3.53,67.68-30.54,0,0-9.3,25.58-24.72,37.42,0,0,14.8-7.41,25.12-21.32,1.5,26,2.49,46.48-4.19,59.33-.6,1.15-1.16,2.27-1.7,3.38h0a157.4,157.4,0,0,1-49.53,27.66c-29.55,9.91-76.56,0-76.56,0s47.37,12.12,78.59,8.08c20.11-2.61,31-8.24,36.16-11.92-11.15,9.24-44.66,34.23-88.68,41.66,0,0,54.54-7.47,90.48-29.5-.07.84-.13,1.69-.19,2.56-11.42,12.57-39.1,41.8-56,49.52,0,0,33.88-14.8,55.25-32.85-.81,17.53-2.5,36.55-11.46,41.67-11.57,6.61-27,12.67-27.54,17.62S307,900.1,307,902.85c0,.9,2.06,2.81,5,4.93V999.5ZM1001.74,734.59c0-.13-.08-.28-.13-.43l1,.32Zm-619,92.25-8.78,1,3.79,1.55-10.62,2.17C344,819.82,344,814.45,344,814.45S360.76,826.22,382.72,826.84ZM351.61,837.6c-2.14.73-4.27,1.48-6.38,2.23a27.11,27.11,0,0,1-2.66-8.86A89.4,89.4,0,0,0,351.61,837.6Z"/>
  </g>
  <g id="Calque_12" data-name="Calque 12">
    <path class="cls-28" d="M1529.64,501.85c-3.11-19.74,1-19.74-6.23-32.2s3.12-12.46-16.62-27.52a122.5,122.5,0,0,0-12.12-8.28c1.49-4.66.84-4.58,2.26-9.38,2.68-9.13-19.22-6.75-24.93-22.33s-12.46-14.54-24.41-29.6-32.71-18.18-37.91-21.81-20.77-2.08-30.12-8.83-35.31-6.23-44.62-5.49h0c-5.06-6-9.9-11.65-9.9-11.65s-5.72-16.62-12-17.13-22.33,6.23-30.12,8.3-27-.52-39.46,7.27-28,.52-37.91,4.68-19.74,2.08-26,9.87-24.41,9.34-30.12,19.21-7.27,34.27-2.6,46.22-1,21,5.72,25.8c-12,4.84-25.45,21.45-24.93,24.57s-13,10.91-13,19.73-3.12,24.41,2.59,29.6,2.6,20.26,5.72,31.68,22.33,17.56,22.33,21.24,3.11,23.42,7.27,31.73,12.46,20.25,18.69,20.25,9.35,7.27,16.1,7.79c5.15.4,15.42,6.52,23.23,8.84.23.32.45.62.66.88,10.38,13.36,34.27,7.94,39.47,15.73s38.6,7.43,38.66,7.43c6.27,11.29,10.55,20.77,11.19,26.33,2.59,22.84-6.75,154.23-24.93,182.79-.49.78-1,1.52-1.45,2.25-7,1.2-18.42.3-18.42.3-.41-3.25,6.92-9.91,6.92-9.91-5.83-.09-16.17,10.58-16.17,10.58,1.17-2.08-.58-7.33-.58-7.33-1.92,5.9-10,6.75-10,6.75-.84-1.63.5-12.34.5-12.34-4.58,3.25-5.33,13-5.33,13-1.59-.08-6.59-6.16-6.59-6.16-.58,3.16-10,6.33-10,6.33,1.17-3.42.65-11.24.65-11.24-.68,5.59-9.06,9.74-9.06,9.74,1.25-12.42-2.34-16-2.34-16s1.17,3,0,10.83-8.91,9.25-8.91,9.25c-1.84-2.33,1.41-9.41,1.41-9.41-3.8,2.51-7.33,10.25-7.33,10.25-3.25-8.09,4.58-21.17,4.58-21.17-4,1.5-8.75,18-8.75,18,0-12.08-9.5-19.58-9.5-19.58s7.25,10.16,6.6,15.55-9,8.86-9,8.86c2.66-4-1.34-6.66-1.34-6.66.84,4.91-6,7.66-6,7.66-1.43-2.5,2.59-6.83,2.59-6.83-2.92,0-8.22,7.61-8.22,7.61-4.93-5.4,1.92-9.94,1.92-9.94-7.83.46-7.74,10.7-7.74,10.7-1-.12-7-13.12-7-13.12s2.62,7.12,1.91,9.79a7.37,7.37,0,0,1-3.24,4.08c-1.33-1,0-3.53,0-3.53s-2.42,2.41-4.3,4.18-8.61.5-8.61.5c0-12.86-4.51-17.27-4.51-17.27,3.5,6.62-1.17,21-1.17,21-1.67-.84-2.08-15.28-2.08-15.28-2.38,2.25-4.63,19-4.63,19-3.5.75-12.77-1.9-12.77-1.9-.51,3.72-13.74,6.9-13.74,6.9,4.37-16.5-.24-23-.24-23,1.38,5.62-3.55,22.65-3.55,22.65s-1.94.16-5.28-6.38,3.2-10.79,3.2-10.79c-8.26,0-11.74,19.77-11.74,19.77-2.88.37-5.13-3.25-5.13-3.25-.52,4.19-6.9,6.91-6.9,6.91-4.28-4.59,1-15.41,1-15.41-3.42.47-8.88,17.75-8.88,17.75-3,.25-7.62-5.63-7.62-5.63-2,5.48-14.13,9.75-14.13,9.75-1.5-3.25,6-7.36,6-7.36-6.33-1.23-33.79,15.55-33.79,15.55,3.81-6,3.29-16.34,3.29-16.34-1.45,8.79-10.52,17.2-10.52,17.2-3.79-5,6.42-13.48,6.42-13.48-8.19-.19-14.06,15.68-14.06,15.68-1.07,0-1-4.12-1-4.12-1.45,2.74-12.25,7.37-12.25,7.37-2.63-4.25,8.64-9.16,8.64-9.16-6.77-1.67-20.26,11.41-20.26,11.41,2.38-10.12,0-16.12,0-16.12.25,3.75-4.62,14.75-4.62,14.75-1-12.38-7.25-15-7.25-15s5.75,7.67,4.75,12.25-15.46,9.89-15.94,10.06h0c3-3.55-.83-6-.83-6,1.7,1.8-14.54,8.75-14.83,8.87h0c.24-2.55-1.53-6.47-1.53-6.47-.29,3.44-10.56,8.4-10.79,8.51h0c-3.82-1.39,3-14.07,3-14.07-5.07.8-9.67,15-10.79,15.24h0c-1.12.11-4.34-3.43-4.34-3.43,1.62,3.17-12.16,5.46-13.83,5.72l-.15,0c11.32-7.09,4.63-13.57,4.63-13.57s2,3.83-2.48,6.56-21.17,8.42-21.49,8.53h0c-2.15-1.09,7-11.09,7-11.09-2.76.52-15.21,10.42-22.64,11.27l-2.23-.06c-6.79-1.45,4.7-5.55,4.7-5.55-5.45-2.64-32.81,2.77-33.29,2.87h0c1-.81,4.48-4.53,4.48-4.53-4.44,1.15-25.07,1.23-25.65,1.23h0c4.65-3.6,7.84-13.73,7.84-13.73s-1.66,2-5.33,6-16.11,5.2-16.32,5.23h0c4.83-3.6,0-6.06,0-6.06-1.17,2.84-27,0-27,0-1.42-2.58,2.5-6.08,2.5-6.08-2.25-.58-6.75,3.67-6.75,3.67,0-2.17,4.5-9.84,4.5-9.84-2.5,1.17-8.42,9.25-8.42,9.25s-4.64.92-5.08-2.25,5.08-3.25,5.08-3.25c-3.25-1.91-12.33,1.84-12.33,1.84,6.16-4.84,5.41-10.5,5.41-10.5-.83,5.08-12,9.41-12,9.41,3.42-4.5.59-6.5.59-6.5a3.6,3.6,0,0,1-.84,3.34c-1.41,1.75-7.5,2.5-7.5,2.5a6.56,6.56,0,0,0,3.25-6.25c-2.58,2.75-15.5,3.41-15.5,3.41-.83-3.66,8.59-7.83,8.59-7.83-2.75-1.25-15.84,6.08-15.84,6.08A6.59,6.59,0,0,0,710,896c-2.42,3.5-16.33,1.58-16.33,1.58,1.33-3.91,9.75-2.5,9.75-2.5-2.92-3.91-26-1.75-26-1.75,4.83-2.33,4.33-6,4.33-6l-1.92,1.92c-1.91,1.92-20.66.25-20.66.25l9.08-2.75c-3.92.67-21.25-1.58-21.25-1.58-.25-3.84,5.67-6.92,5.67-6.92-2.75-.83-12.84,3.5-12.84,3.5,5-5.5-3.66-7.25-3.66-7.25s4.5,1.83,1.58,4.83-39.37-2.83-39.37-2.83c1.75-7.38,12.37-9.38,12.37-9.38-5.62-1.75-18,7-18,7a11.75,11.75,0,0,0,.63-8.25s-.63,4.88-3.13,6.25-7.12.88-7.12.88a3.5,3.5,0,0,0,2.75-3.88c-.38,2.5-12.5,2.63-12.5,2.63,6.87-1.88,7.12-9.38,7.12-9.38-2.35,5.23-16.67,5.05-16.67,5.05a7.1,7.1,0,0,0-.73-7.15c.09.12.68,1,0,4.65-.75,3.91-11.33.75-11.33.75a8.59,8.59,0,0,0,3.75-1.17c-2.75.75-6.25-1.67-9.08-3.08s-13.09.75-13.09.75a9.25,9.25,0,0,0,1.06-4.81c-2,2.93-18.28,4.39-18.28,4.39-3.31-5.34,4.31-12.83,4.31-12.83-2.84-.92-9.42,8-9.42,8a11.08,11.08,0,0,0-1.46-10.67s1.36,3.8,0,7-5.71,4.45-5.71,4.45c2.09-1.59,2.59-6.42,2.59-6.42-.17,2.92-13.49,5.75-13.49,5.75,1.77-1.33,2.32-5.75,2.32-5.75-2.83,3.58-22,1.25-22,1.25a22.77,22.77,0,0,0,0-13.49c-.84,7.18-6.89,11.86-6.89,11.86,2.1-6.75,0-10.38,0-10.38-1.78,8.86-7.22,10.26-7.22,10.26a7.83,7.83,0,0,0,.87-4.13c-2.46,4.15-9.37,2.63-9.37,2.63,0-3.13,9.37-6.63,9.37-6.63-6.62-.37-20.37,5.75-20.37,5.75,1.49-1.22,2.48-7.12,2.48-7.12-2.19,3.11-13.36,5-13.36,5-.87-4.5,8.48-12.17,8.48-12.17-5.27.42-18.1,11.92-18.1,11.92,1.5-2.5,1.12-7,1.12-7-2.12,6.63-20.12,3.74-20.12,3.74.87-3.13,5-3,5-3-5.75-2.1-28.5.73-28.5.73,4.24-2,2.23-7,2.23-7-2.26,6-23.07.37-23.07.37.13-.42.23-.84.32-1.25,1.95-.11,3-.19,3-.19-1-.14-1.93-.3-2.89-.46a13.69,13.69,0,0,0-1.32-8.41c.46,1,1,3.24-.41,6.67a6.85,6.85,0,0,1-.77,1.34,206.45,206.45,0,0,1-57.62-19c-.06-.54-.1-.85-.1-.85a7.31,7.31,0,0,1,0,.82c-63.65-31.92-93.68-87.13-93.68-87.13,18.2,21.81,109.17,50.38,109.17,50.38C246.45,752,211.46,676.18,211.46,676.18c28,20.77,73.48,23.89,73.48,23.89-50.39-27-81.18-100.22-81.18-100.22,24.5,13,42.69,18.17,42.69,18.17-26.59-15.06-65.08-85.16-65.08-85.16,13.29,5.19,49.68,10.9,49.68,10.9-21.69-7.27-75.58-72.7-75.58-72.7,14.7,68.55-60.88,148.52-60.88,148.52,10.5-2.08,51.79-27,51.79-27C145,612.31,91.49,679.3,91.49,679.3,115,674.62,142.88,657,142.88,657c-2.1,23.89-86.78,72.7-86.78,72.7,34.29,5.71,83.28-16.62,83.28-16.62,0,23.89-108.47,72.57-108.47,72.57,29.39,9.74,98.67-13.37,98.67-13.37C131,792.5,16.91,832,16.91,832c68,9.13,128.83-16,137.5-19.78.53,8.9,1,24.83-.85,39.92-14.53,4.49-28.86,8.37-28.86,8.37-1.64-1.56,4.8-9.34,4.8-9.34-3.49,1.36-43.17,21.65-43.17,21.65,1.34-1.5,3-11.67,3-11.67S84.8,866,75.86,870.86s-60.28,20.26-60.28,20.26l1.42-4.5c-2.5,3.67-17,12.13-17,12.13C0,898.91.08,1000,.08,1000h1400V887.46a.76.76,0,0,0,.25-.29,1.28,1.28,0,0,0-.25-1.25v-8.3c0,3.42-8.27,1.34-8.27,1.34,2.5-3.92,6.09-14.25,6.09-14.25s-4.5,10.91-8.09,11.75a21.76,21.76,0,0,1-4.46.39q-2.11-1.25-4.37-2.67a22.94,22.94,0,0,1,4.84-1.56c-2.1-1.07-5.06-.93-7.81-.39-2-1.35-4-2.82-6.06-4.42a50.63,50.63,0,0,0-1.39-14.85c.52,3.7-.57,8.2-1.94,12.09-.83-.72-1.66-1.46-2.48-2.24.57-1.61,1-2.71,1-2.71a8,8,0,0,0-1.92,1.86l-.78-.75c-16.61-16.62-18.17-91.4-15.58-122.56,1.34-16.08,2.27-37.7,4.5-59.46,6.56-.78,5.37-15.32,13.68-18.44s14.54-30.12,22.85-35.46c3.64-2.34,5-8.08,5.66-15.14a52,52,0,0,1,14.07-6.52c15.06-4.67,8.31-3.12,22.85-9.87s19.74-18.17,25.45-24.92,4.67-11.53,13.5-13,13.5-2.54,13.5-2.54,6.23,4.67,20.78-10.39,12.46-7.27,16.61-18.17S1532.76,521.58,1529.64,501.85ZM204.06,841.44c-5.44-7.14-10.35-14.31-14.19-20.2-.2-3.34-.38-6.58-.54-9.65,21.92,10.16,49.33,15.77,75.7,18.77-13.44,4.18-34.78,8.69-34.78,8.69,1.25-2.74,8.2-8,8.2-8C235.49,831.42,219.15,836.56,204.06,841.44Zm69.8-10.17,4.3.38a53.73,53.73,0,0,1-5.66,4.14Zm22.75,1.59c4.24.21,8.37.36,12.36.46a83.09,83.09,0,0,1-12.92,2A12.53,12.53,0,0,0,296.61,832.86Zm19.28.6,3.84,0c-2.76.78-4.6,1.4-4.6,1.4A4.8,4.8,0,0,0,315.89,833.46Zm20.46,0c2.7,0,5.21-.12,7.5-.19-3,2.09-9.85,3.68-9.85,3.68C333.53,835.81,334.76,834.53,336.35,833.42Zm8.62-.23c3-.1,5.54-.21,7.63-.32-3.21,2.87-8.62,3.69-8.62,3.69A14.19,14.19,0,0,0,345,833.19Z"/>
  </g>
</svg>
